<svg id="Calque_1" data-name="Calque 1" xmlns="http://www.w3.org/2000/svg" xmlns:xlink="http://www.w3.org/1999/xlink" viewBox="0 0 427.5349 280.7204"><defs><style>.cls-1{fill:url(#Dégradé_sans_nom_30);}.cls-2{fill:url(#Dégradé_sans_nom_30-2);}</style><linearGradient id="Dégradé_sans_nom_30" x1="247.9978" y1="255.5" x2="469.0022" y2="255.5" gradientTransform="translate(231.9336 -166.1437) rotate(37.8145)" gradientUnits="userSpaceOnUse"><stop offset="0" stop-color="#d4a7ff"/><stop offset="1" stop-color="#5600a7"/></linearGradient><linearGradient id="Dégradé_sans_nom_30-2" x1="41.7393" y1="255.6398" x2="469.2743" y2="255.6398" gradientTransform="matrix(1, 0, 0, 1, 0, 0)" xlink:href="#Dégradé_sans_nom_30"/></defs><rect class="cls-1" x="351" y="80" width="15" height="351" rx="7.5" transform="matrix(0.79, -0.6131, 0.6131, 0.79, -123.1031, 158.174)"/><path class="cls-2" d="M466.12,381.9723,321.3275,279.001,262.5657,120.2649c-.0114-.0309-.0266-.0592-.0384-.09a7.4893,7.4893,0,0,0-12.95-1.9935L44.1111,382.9286a7.4969,7.4969,0,0,0-1.8327,8.2551h0A7.9937,7.9937,0,0,0,49.5,396h412a7.4876,7.4876,0,0,0,6.3546-3.53c.01-.0137.0213-.0256.0311-.0394A7.5,7.5,0,0,0,466.12,381.9723ZM253.1515,138.0413,304.905,277.8457,72.3008,371.071ZM87.8475,381l224.5014-89.9779L438.871,381Z" transform="translate(-41.7393 -115.2796)"/></svg>