<?xml version="1.0" encoding="utf-8"?>
<!-- Generator: Adobe Illustrator 27.5.0, SVG Export Plug-In . SVG Version: 6.00 Build 0)  -->
<svg version="1.1" xmlns="http://www.w3.org/2000/svg" xmlns:xlink="http://www.w3.org/1999/xlink" x="0px" y="0px"
	 viewBox="0 0 3710 3710" style="enable-background:new 0 0 3710 3710;" xml:space="preserve">
<g id="Background">
	<g>
		<g>
			<rect style="fill:#FFFFFF;" width="3710" height="3710"/>
		</g>
	</g>
</g>
<g id="Illustration">
	<g>
		<linearGradient id="SVGID_1_" gradientUnits="userSpaceOnUse" x1="3477.9404" y1="3343.4587" x2="1394.8586" y2="1516.7542">
			<stop  offset="0" style="stop-color:#B37CFF"/>
			<stop  offset="1" style="stop-color:#F895E7"/>
		</linearGradient>
		<path style="opacity:0.3;fill:url(#SVGID_1_);" d="M2932.91,2863.078c-73.35,75.607-138.981,120.051-189.23,153.603
			c-490.073,327.226-1050.28,232.912-1223.482,200.675c-279.44-52.01-515.326-88.7-717.995-271.803
			c-460.524-416.065-438.125-1284.007-86.228-1821.66c41.724-63.75,393.088-584.58,954.507-657.969
			c13.732-1.795,23.977-2.817,32.951-3.767c86.85-9.195,625.045-57.727,1063.888,309.936
			c62.818,52.629,163.911,147.558,257.657,292.342C3367.755,1593.825,3368.841,2413.737,2932.91,2863.078z"/>
		<g>
			<g>
				
					<linearGradient id="SVGID_00000139272166957354458600000006792162287264153254_" gradientUnits="userSpaceOnUse" x1="3584.6702" y1="230.8873" x2="2823.8745" y2="1091.6423">
					<stop  offset="0" style="stop-color:#A737D5"/>
					<stop  offset="1" style="stop-color:#EF497A"/>
				</linearGradient>
				<path style="fill:url(#SVGID_00000139272166957354458600000006792162287264153254_);" d="M2699.021,1749.198
					c0,0-6.381-268.27,117.182-340.071c123.562-71.801,358.498-116.691,367.304-501.901c5.156-225.519,10.736-324.12,14.476-367.114
					c1.459-16.771-13.445-30.309-29.988-27.193c-117.024,22.045-497.184,112.786-576.887,372.262
					C2496.618,1192.793,2699.021,1749.198,2699.021,1749.198z"/>
				
					<linearGradient id="SVGID_00000078010925353922450560000009523049600325683887_" gradientUnits="userSpaceOnUse" x1="3305.8086" y1="841.6484" x2="890.1397" y2="2568.7134">
					<stop  offset="0" style="stop-color:#CB236D"/>
					<stop  offset="1" style="stop-color:#4C246D"/>
				</linearGradient>
				<path style="fill:url(#SVGID_00000078010925353922450560000009523049600325683887_);" d="M3077.492,620.096
					c-128.457,114.566-276.994,317.323-356.166,520.081c-10.163,33.416-39.889,104.478-52.799,230.737
					c-11.53,105.302-5.798,216.574,8.183,290.231c0.884,4.657,5.375,7.715,10.032,6.831c8.007-1.519,6.942-10.131,6.87-9.859
					c-15.967-125.844-9.339-282.479,27.247-423.809c46.741-173.536,150.994-341.786,258.825-484.486l11.097-14.052
					c83.543-107.289,101.13-108.08,93.321-115.558C3082.257,618.447,3079.369,618.431,3077.492,620.096z"/>
			</g>
			<g>
				
					<linearGradient id="SVGID_00000016077827199548759840000001180304847388361394_" gradientUnits="userSpaceOnUse" x1="3265.8604" y1="1018.6287" x2="2721.6406" y2="1696.1259">
					<stop  offset="0" style="stop-color:#A737D5"/>
					<stop  offset="1" style="stop-color:#EF497A"/>
				</linearGradient>
				<path style="fill:url(#SVGID_00000016077827199548759840000001180304847388361394_);" d="M2500.452,2264.984
					c-16.718,8.197,158.265-211.844,213.078-557.435c25.829-162.852,26.167-366.891,118.934-445.52
					c77.207-65.441,339.934-24.126,425.898-8.425c10.742,1.962,14.358,15.531,5.996,22.554
					c-41.225,34.621-129.411,116.285-152.389,198.587c-30.286,108.48-133.421,177.479-225.752,196.152
					c-92.331,18.673-143.693,36.795-188.674,184.453C2652.563,2003.007,2547.953,2241.692,2500.452,2264.984z"/>
				
					<linearGradient id="SVGID_00000070798052010253452340000007974232439407950509_" gradientUnits="userSpaceOnUse" x1="3045.8606" y1="961.9249" x2="2833.7229" y2="1981.2186">
					<stop  offset="0" style="stop-color:#CB236D"/>
					<stop  offset="1" style="stop-color:#4C246D"/>
				</linearGradient>
				<path style="fill:url(#SVGID_00000070798052010253452340000007974232439407950509_);" d="M3137.458,1299.438
					c-109.677,4.594-227.406,54.624-287.15,148.472l-5.639,8.955c-13.024,20.998-86.835,170.271-127.83,294.009
					c-0.51,1.543,0.326,3.208,1.868,3.719c2.62,0.867,3.933-2.016,3.683-1.761c28.562-69.903,69.583-158.529,102.255-224.805
					c35.037-72.32,59.557-121.297,139.475-168.21c88.951-50.523,173.931-55.724,173.677-55.672c1.297-0.132,2.241-1.291,2.109-2.588
					C3139.778,1300.309,3138.694,1299.389,3137.458,1299.438z"/>
			</g>
		</g>
		<g>
			
				<linearGradient id="SVGID_00000136378943078148133790000008007380093666347943_" gradientUnits="userSpaceOnUse" x1="1726.3309" y1="4214.6885" x2="1694.5037" y2="1275.938">
				<stop  offset="0" style="stop-color:#CB236D"/>
				<stop  offset="1" style="stop-color:#4C246D"/>
			</linearGradient>
			<path style="fill:url(#SVGID_00000136378943078148133790000008007380093666347943_);" d="M480.638,1923.33l25.859,804.226
				c4.51,140.235,119.594,251.833,260.558,252.664l1925.856,11.351c94.214,0.555,174.476-67.901,188.232-160.671
				c30.114-203.094,68.484-566.486,25.277-907.57H480.638z"/>
			<path style="fill:#FFFFFF;" d="M2653.056,2945.564c-3.076,0-5.624-2.436-5.737-5.533c-0.117-3.165,2.352-5.836,5.528-5.961
				c11.14-0.415,22.258-1.896,33.039-4.411c3.07-0.718,6.179,1.213,6.897,4.3c0.724,3.086-1.201,6.185-4.293,6.903
				c-11.494,2.671-23.342,4.254-35.217,4.702C2653.202,2945.564,2653.128,2945.564,2653.056,2945.564z M2572.609,2945.262h-0.033
				l-34.481-0.202c-3.177-0.023-5.73-2.604-5.714-5.78c0.017-3.165,2.587-5.714,5.747-5.714h0.035l34.481,0.202
				c3.176,0.022,5.729,2.603,5.712,5.78C2578.34,2942.713,2575.769,2945.262,2572.609,2945.262z M2457.671,2944.588
				c-0.01,0-0.022,0-0.022,0l-34.487-0.202c-3.177-0.023-5.73-2.604-5.714-5.78c0.017-3.166,2.587-5.714,5.747-5.714h0.035
				l34.476,0.202c3.176,0.022,5.73,2.603,5.712,5.78C2463.402,2942.04,2460.831,2944.588,2457.671,2944.588z M2342.739,2943.903
				c-0.01,0-0.022,0-0.022,0l-34.493-0.202c-3.177-0.022-5.73-2.603-5.714-5.78c0.017-3.166,2.587-5.714,5.747-5.714
				c0.011,0,0.023,0,0.023,0l34.493,0.202c3.176,0.023,5.73,2.605,5.712,5.78
				C2348.469,2941.355,2345.898,2943.903,2342.739,2943.903z M2227.801,2943.229h-0.033l-34.481-0.202
				c-3.177-0.022-5.73-2.604-5.714-5.78c0.017-3.177,3.082-5.747,5.781-5.714l34.481,0.202c3.176,0.023,5.729,2.604,5.712,5.781
				C2233.531,2940.681,2230.96,2943.229,2227.801,2943.229z M2112.863,2942.556h-0.033l-34.476-0.202
				c-3.177-0.022-5.73-2.603-5.714-5.78c0.017-3.165,2.587-5.714,5.747-5.714c0,0,0.023,0,0.033,0l34.477,0.202
				c3.176,0.023,5.73,2.604,5.712,5.78C2118.593,2940.008,2116.022,2942.556,2112.863,2942.556z M1997.93,2941.871h-0.033
				l-34.481-0.201c-3.177-0.023-5.73-2.605-5.714-5.781c0.017-3.166,2.587-5.712,5.747-5.712h0.033l34.481,0.201
				c3.177,0.023,5.731,2.604,5.714,5.781C2003.661,2939.324,2001.09,2941.871,1997.93,2941.871z M1882.992,2941.198
				c0,0-0.022,0-0.033,0l-34.481-0.202c-3.177-0.023-5.73-2.604-5.714-5.781c0.017-3.164,2.587-5.712,5.747-5.712h0.033
				l34.481,0.202c3.177,0.022,5.731,2.603,5.714,5.78C1888.723,2938.65,1886.152,2941.198,1882.992,2941.198z M1768.06,2940.525
				c0,0-0.022,0-0.033,0l-34.481-0.202c-3.177-0.023-5.731-2.604-5.714-5.781c0.017-3.164,2.587-5.713,5.747-5.713h0.033
				l34.481,0.202c3.177,0.022,5.731,2.603,5.714,5.78C1773.789,2937.977,1771.219,2940.525,1768.06,2940.525z M1653.121,2939.84
				h-0.033l-34.481-0.202c-3.177-0.022-5.731-2.604-5.714-5.78c0.017-3.165,2.587-5.714,5.747-5.714c0.011,0,0.023,0,0.023,0
				l34.492,0.202c3.177,0.022,5.731,2.604,5.714,5.78C1658.851,2937.292,1656.281,2939.84,1653.121,2939.84z M1538.183,2939.167
				c-0.011,0-0.022,0-0.022,0l-34.493-0.202c-3.177-0.022-5.731-2.603-5.714-5.78c0.017-3.166,2.587-5.714,5.747-5.714h0.033
				l34.481,0.202c3.177,0.022,5.731,2.604,5.714,5.78C1543.913,2936.618,1541.343,2939.167,1538.183,2939.167z M1423.251,2938.493
				h-0.033l-34.481-0.202c-3.177-0.022-5.731-2.604-5.714-5.78c0.017-3.166,2.587-5.714,5.747-5.714h0.033l34.481,0.202
				c3.177,0.023,5.731,2.604,5.714,5.78C1428.981,2935.945,1426.411,2938.493,1423.251,2938.493z M1308.313,2937.808h-0.033
				l-34.481-0.201c-3.177-0.023-5.731-2.604-5.714-5.781c0.017-3.166,2.587-5.712,5.747-5.712c0,0,0.022,0,0.033,0l34.482,0.201
				c3.177,0.023,5.731,2.604,5.714,5.781C1314.043,2935.26,1311.473,2937.808,1308.313,2937.808z M1193.375,2937.135
				c0,0-0.023,0-0.033,0l-34.481-0.201c-3.177-0.023-5.731-2.604-5.714-5.781c0.017-3.166,2.587-5.712,5.747-5.712h0.033
				l34.481,0.201c3.177,0.023,5.731,2.604,5.714,5.781C1199.104,2934.587,1196.535,2937.135,1193.375,2937.135z M1078.443,2936.461
				c0,0-0.023,0-0.033,0l-34.481-0.201c-3.177-0.023-5.731-2.604-5.714-5.781c0.016-3.176,2.996-5.321,5.78-5.712l34.481,0.201
				c3.177,0.023,5.73,2.604,5.714,5.781C1084.172,2933.914,1081.602,2936.461,1078.443,2936.461z M963.504,2935.777h-0.033
				l-34.481-0.202c-3.177-0.023-5.731-2.604-5.714-5.78c0.016-3.166,2.587-5.714,5.747-5.714h0.033l34.482,0.202
				c3.177,0.022,5.73,2.603,5.714,5.78C969.234,2933.229,966.664,2935.777,963.504,2935.777z M848.566,2935.104
				c-0.012,0-0.023,0-0.023,0l-34.492-0.202c-3.177-0.023-5.731-2.604-5.714-5.78c0.016-3.165,2.587-5.714,5.747-5.714
				c0.012,0,0.022,0,0.022,0l34.493,0.202c3.177,0.022,5.73,2.603,5.714,5.78C854.296,2932.555,851.726,2935.104,848.566,2935.104z
				 M734.997,2922.262c-0.594,0-1.207-0.09-1.801-0.292c-11.085-3.66-22.057-8.149-32.613-13.357
				c-2.846-1.403-4.018-4.849-2.616-7.689c1.409-2.839,4.844-4.007,7.701-2.615c10.073,4.961,20.552,9.249,31.131,12.751
				c3.014,0.999,4.652,4.242,3.653,7.262C739.656,2920.736,737.411,2922.262,734.997,2922.262z M2758.969,2906.19
				c-1.689,0-3.356-0.741-4.49-2.155c-1.987-2.481-1.583-6.095,0.892-8.083c8.7-6.958,16.742-14.771,23.914-23.2
				c2.048-2.425,5.663-2.727,8.099-0.662c2.418,2.054,2.716,5.679,0.656,8.103c-7.643,8.992-16.219,17.32-25.485,24.739
				C2761.494,2905.773,2760.226,2906.19,2758.969,2906.19z M637.911,2862.761c-1.459,0-2.923-0.55-4.04-1.661
				c-8.363-8.272-16.203-17.173-23.302-26.457c-1.93-2.514-1.447-6.128,1.072-8.058c2.519-1.919,6.14-1.448,8.054,1.077
				c6.785,8.856,14.272,17.365,22.258,25.267c2.256,2.233,2.279,5.87,0.045,8.126
				C640.875,2862.189,639.394,2862.761,637.911,2862.761z M2820.44,2811.444c-0.477,0-0.965-0.056-1.448-0.179
				c-3.07-0.798-4.917-3.94-4.119-7.004c1.532-5.926,2.767-12,3.658-18.06l2.24-15.253c0.454-3.144,3.31-5.355,6.51-4.872
				c3.143,0.461,5.321,3.379,4.86,6.51l-2.239,15.299c-0.954,6.454-2.268,12.93-3.906,19.25
				C2825.327,2809.727,2822.993,2811.444,2820.44,2811.444z M577.362,2766.254c-2.391,0-4.625-1.503-5.439-3.894
				c-3.777-11.056-6.802-22.528-8.996-34.078c-0.594-3.119,1.454-6.128,4.575-6.723c3.098-0.572,6.128,1.459,6.717,4.568
				c2.094,11.034,4.984,21.977,8.581,32.529c1.028,2.998-0.578,6.263-3.58,7.296
				C578.602,2766.154,577.979,2766.254,577.362,2766.254z M2837.158,2697.752c-0.236,0-0.471-0.012-0.713-0.045
				c-3.148-0.393-5.387-3.255-4.994-6.409c1.375-11.124,2.744-22.516,4.096-34.189c0.365-3.155,3.249-5.41,6.37-5.052
				c3.154,0.37,5.41,3.222,5.046,6.375c-1.353,11.696-2.722,23.134-4.109,34.279
				C2842.495,2695.618,2840.021,2697.752,2837.158,2697.752z M562.989,2652.82c-3.087,0-5.64-2.447-5.735-5.568l-1.112-34.47
				c-0.107-3.165,2.385-5.825,5.556-5.926c2.907-0.146,5.825,2.379,5.926,5.568l1.112,34.47c0.107,3.165-2.385,5.825-5.556,5.926
				C563.117,2652.82,563.057,2652.82,562.989,2652.82z M2849.718,2583.487c-0.179,0-0.364-0.011-0.549-0.023
				c-3.16-0.302-5.478-3.109-5.175-6.274c1.071-11.258,2.121-22.696,3.131-34.291c0.276-3.166,3.019-5.331,6.224-5.23
				c3.16,0.269,5.501,3.064,5.225,6.218c-1.01,11.64-2.06,23.099-3.143,34.402
				C2855.151,2581.264,2852.648,2583.487,2849.718,2583.487z M559.29,2537.938c-3.086,0-5.64-2.458-5.735-5.568l-1.106-34.458
				c-0.107-3.166,2.385-5.826,5.556-5.927c3.109-0.045,5.825,2.392,5.926,5.568l1.106,34.459c0.107,3.166-2.385,5.825-5.556,5.926
				C559.419,2537.938,559.358,2537.938,559.29,2537.938z M2859,2468.907c-0.128,0-0.257,0-0.387-0.01
				c-3.164-0.214-5.561-2.953-5.354-6.118c0.753-11.336,1.459-22.797,2.11-34.369c0.175-3.165,2.902-5.679,6.056-5.41
				c3.171,0.179,5.595,2.885,5.416,6.061c-0.652,11.595-1.358,23.1-2.11,34.481C2864.529,2466.573,2862.004,2468.907,2859,2468.907z
				 M555.597,2423.056c-3.086,0-5.64-2.458-5.735-5.568l-1.106-34.458c-0.107-3.165,2.385-5.826,5.556-5.927
				c3.081-0.224,5.831,2.402,5.926,5.568l1.106,34.458c0.107,3.166-2.385,5.826-5.556,5.927
				C555.727,2423.056,555.659,2423.056,555.597,2423.056z M2864.776,2354.104c-0.068,0-0.134,0-0.202,0
				c-3.171-0.112-5.657-2.772-5.545-5.938c0.382-11.403,0.718-22.875,0.993-34.414c0.078-3.187,3.126-5.5,5.882-5.612
				c3.177,0.079,5.685,2.706,5.612,5.881c-0.275,11.585-0.611,23.1-1.004,34.527
				C2870.41,2351.658,2867.856,2354.104,2864.776,2354.104z M551.904,2308.185c-3.086,0-5.64-2.457-5.735-5.566l-1.106-34.471
				c-0.107-3.166,2.385-5.825,5.556-5.926c3.053,0.169,5.831,2.402,5.926,5.568l1.106,34.47c0.107,3.165-2.385,5.825-5.556,5.926
				C552.034,2308.185,551.966,2308.185,551.904,2308.185z M2866.701,2239.166c-3.171,0-5.742-2.57-5.747-5.735
				c-0.017-11.426-0.095-22.898-0.241-34.425c-0.04-3.165,2.502-5.769,5.673-5.815c2.817,0.035,5.776,2.492,5.82,5.68
				c0.146,11.55,0.224,23.066,0.241,34.538c0.005,3.176-2.565,5.757-5.742,5.757H2866.701z M548.211,2193.303
				c-3.086,0-5.64-2.447-5.735-5.567l-1.112-34.47c-0.106-3.166,2.386-5.825,5.556-5.926c2.7-0.068,5.832,2.368,5.927,5.568
				l1.11,34.47c0.107,3.165-2.385,5.825-5.556,5.926C548.341,2193.303,548.279,2193.303,548.211,2193.303z M2864.276,2124.274
				c-3.064,0-5.607-2.414-5.735-5.511c-0.477-11.438-1.028-22.898-1.655-34.358c-0.181-3.165,2.251-5.881,5.42-6.05
				c3.144-0.269,5.871,2.246,6.05,5.422c0.64,11.505,1.19,23.011,1.667,34.515c0.135,3.166-2.329,5.848-5.5,5.984
				C2864.439,2124.274,2864.36,2124.274,2864.276,2124.274z M544.519,2078.421c-3.087,0-5.641-2.447-5.737-5.568l-1.11-34.458
				c-0.107-3.165,2.385-5.826,5.556-5.926c2.71-0.326,5.831,2.379,5.926,5.566l1.111,34.448c0.106,3.177-2.386,5.837-5.556,5.938
				C544.648,2078.421,544.586,2078.421,544.519,2078.421z M2856.89,2009.571c-2.946,0-5.455-2.245-5.718-5.242
				c-1.016-11.416-2.11-22.842-3.294-34.234c-0.331-3.154,1.958-5.983,5.118-6.308c3.16-0.315,5.983,1.964,6.314,5.118
				c1.189,11.459,2.295,22.931,3.311,34.414c0.281,3.154-2.054,5.949-5.214,6.23
				C2857.233,2009.56,2857.059,2009.571,2856.89,2009.571z M540.821,1963.54c-3.087,0-5.64-2.458-5.736-5.568l-1.106-34.458
				c-0.107-3.165,2.385-5.826,5.556-5.927c2.727-0.033,5.825,2.38,5.926,5.568l1.106,34.46c0.107,3.164-2.385,5.825-5.556,5.926
				C540.95,1963.54,540.887,1963.54,540.821,1963.54z M2814.289,1929.08h-34.482c-3.177,0-5.747-2.57-5.747-5.747
				c0-3.176,2.57-5.747,5.747-5.747h34.482c3.177,0,5.747,2.571,5.747,5.747C2820.035,1926.51,2817.465,1929.08,2814.289,1929.08z
				 M2699.35,1929.08h-34.481c-3.177,0-5.747-2.57-5.747-5.747c0-3.176,2.57-5.747,5.747-5.747h34.481
				c3.177,0,5.747,2.571,5.747,5.747C2705.097,1926.51,2702.527,1929.08,2699.35,1929.08z M2584.412,1929.08h-34.481
				c-3.177,0-5.747-2.57-5.747-5.747c0-3.176,2.57-5.747,5.747-5.747h34.481c3.177,0,5.747,2.571,5.747,5.747
				C2590.159,1926.51,2587.589,1929.08,2584.412,1929.08z M2469.474,1929.08h-34.481c-3.177,0-5.747-2.57-5.747-5.747
				c0-3.176,2.57-5.747,5.747-5.747h34.481c3.177,0,5.747,2.571,5.747,5.747C2475.221,1926.51,2472.651,1929.08,2469.474,1929.08z
				 M2354.536,1929.08h-34.481c-3.177,0-5.747-2.57-5.747-5.747c0-3.176,2.57-5.747,5.747-5.747h34.481
				c3.177,0,5.747,2.571,5.747,5.747C2360.283,1926.51,2357.713,1929.08,2354.536,1929.08z M2239.598,1929.08h-34.481
				c-3.177,0-5.747-2.57-5.747-5.747c0-3.176,2.57-5.747,5.747-5.747h34.481c3.177,0,5.747,2.571,5.747,5.747
				C2245.345,1926.51,2242.775,1929.08,2239.598,1929.08z M2124.66,1929.08h-34.482c-3.177,0-5.747-2.57-5.747-5.747
				c0-3.176,2.57-5.747,5.747-5.747h34.482c3.177,0,5.747,2.571,5.747,5.747C2130.407,1926.51,2127.837,1929.08,2124.66,1929.08z
				 M2009.722,1929.08h-34.481c-3.177,0-5.747-2.57-5.747-5.747c0-3.176,2.57-5.747,5.747-5.747h34.481
				c3.177,0,5.747,2.571,5.747,5.747C2015.469,1926.51,2012.899,1929.08,2009.722,1929.08z M1894.783,1929.08h-34.481
				c-3.177,0-5.747-2.57-5.747-5.747c0-3.176,2.57-5.747,5.747-5.747h34.481c3.177,0,5.747,2.571,5.747,5.747
				C1900.53,1926.51,1897.96,1929.08,1894.783,1929.08z M1779.845,1929.08h-34.481c-3.177,0-5.747-2.57-5.747-5.747
				c0-3.176,2.57-5.747,5.747-5.747h34.481c3.177,0,5.747,2.571,5.747,5.747C1785.592,1926.51,1783.022,1929.08,1779.845,1929.08z
				 M1664.907,1929.08h-34.481c-3.177,0-5.747-2.57-5.747-5.747c0-3.176,2.57-5.747,5.747-5.747h34.481
				c3.177,0,5.747,2.571,5.747,5.747C1670.654,1926.51,1668.084,1929.08,1664.907,1929.08z M1549.969,1929.08h-34.482
				c-3.177,0-5.747-2.57-5.747-5.747c0-3.176,2.57-5.747,5.747-5.747h34.482c3.177,0,5.747,2.571,5.747,5.747
				C1555.716,1926.51,1553.146,1929.08,1549.969,1929.08z M1435.031,1929.08h-34.482c-3.177,0-5.747-2.57-5.747-5.747
				c0-3.176,2.57-5.747,5.747-5.747h34.482c3.177,0,5.747,2.571,5.747,5.747C1440.778,1926.51,1438.208,1929.08,1435.031,1929.08z
				 M1320.093,1929.08h-34.481c-3.177,0-5.747-2.57-5.747-5.747c0-3.176,2.57-5.747,5.747-5.747h34.481
				c3.177,0,5.747,2.571,5.747,5.747C1325.84,1926.51,1323.27,1929.08,1320.093,1929.08z M1205.155,1929.08h-34.481
				c-3.177,0-5.747-2.57-5.747-5.747c0-3.176,2.57-5.747,5.747-5.747h34.481c3.177,0,5.747,2.571,5.747,5.747
				C1210.902,1926.51,1208.332,1929.08,1205.155,1929.08z M1090.217,1929.08h-34.481c-3.177,0-5.747-2.57-5.747-5.747
				c0-3.176,2.57-5.747,5.747-5.747h34.481c3.177,0,5.747,2.571,5.747,5.747C1095.964,1926.51,1093.394,1929.08,1090.217,1929.08z
				 M975.279,1929.08h-34.481c-3.177,0-5.747-2.57-5.747-5.747c0-3.176,2.57-5.747,5.747-5.747h34.481
				c3.177,0,5.747,2.571,5.747,5.747C981.026,1926.51,978.456,1929.08,975.279,1929.08z M860.341,1929.08h-34.482
				c-3.177,0-5.747-2.57-5.747-5.747c0-3.176,2.57-5.747,5.747-5.747h34.482c3.177,0,5.747,2.571,5.747,5.747
				C866.087,1926.51,863.517,1929.08,860.341,1929.08z M745.402,1929.08h-34.482c-3.177,0-5.747-2.57-5.747-5.747
				c0-3.176,2.57-5.747,5.747-5.747h34.482c3.177,0,5.747,2.571,5.747,5.747C751.149,1926.51,748.579,1929.08,745.402,1929.08z
				 M630.464,1929.08h-34.481c-3.177,0-5.747-2.57-5.747-5.747c0-3.176,2.57-5.747,5.747-5.747h34.481
				c3.177,0,5.747,2.571,5.747,5.747C636.211,1926.51,633.641,1929.08,630.464,1929.08z"/>
			
				<linearGradient id="SVGID_00000067921925966355153130000004994820674408500661_" gradientUnits="userSpaceOnUse" x1="1218.0336" y1="1500.3304" x2="1203.8878" y2="1157.3009">
				<stop  offset="0" style="stop-color:#CB236D"/>
				<stop  offset="1" style="stop-color:#4C246D"/>
			</linearGradient>
			<path style="fill:url(#SVGID_00000067921925966355153130000004994820674408500661_);" d="M1045.04,1339.501l5.794-62.024
				c6.54-14.807,20.119-25.291,36.168-27.845c59.999-9.551,208.799-26.34,280.446,27.205l10.703,72.075L1045.04,1339.501z"/>
			
				<linearGradient id="SVGID_00000127753982561354021400000011697832744122117811_" gradientUnits="userSpaceOnUse" x1="1200.1246" y1="985.3141" x2="1270.8524" y2="1968.4316">
				<stop  offset="0" style="stop-color:#CB236D"/>
				<stop  offset="1" style="stop-color:#4C246D"/>
			</linearGradient>
			<path style="fill:url(#SVGID_00000127753982561354021400000011697832744122117811_);" d="M1232.463,1279.823
				c-13.814,3.368-27.653,3.358-41.517-0.048c-16.774-4.123-28.608-19.131-28.608-36.328l0.001-194.216h98.837l0.002,194.071
				C1261.179,1260.577,1249.321,1275.712,1232.463,1279.823z"/>
			
				<linearGradient id="SVGID_00000094580775622463207700000007709428111083569840_" gradientUnits="userSpaceOnUse" x1="2173.7205" y1="1460.9203" x2="2159.5747" y2="1117.8907">
				<stop  offset="0" style="stop-color:#CB236D"/>
				<stop  offset="1" style="stop-color:#4C246D"/>
			</linearGradient>
			<path style="fill:url(#SVGID_00000094580775622463207700000007709428111083569840_);" d="M2002.352,1339.501l5.794-62.024
				c6.54-14.807,20.12-25.291,36.166-27.845c60-9.551,208.8-26.34,280.447,27.205l10.704,72.075L2002.352,1339.501z"/>
			
				<linearGradient id="SVGID_00000077313565316442281590000002800100948139528368_" gradientUnits="userSpaceOnUse" x1="2153.2402" y1="916.7451" x2="2223.968" y2="1899.8612">
				<stop  offset="0" style="stop-color:#CB236D"/>
				<stop  offset="1" style="stop-color:#4C246D"/>
			</linearGradient>
			<path style="fill:url(#SVGID_00000077313565316442281590000002800100948139528368_);" d="M2189.776,1279.823
				c-13.814,3.368-27.653,3.358-41.518-0.048c-16.775-4.123-28.608-19.131-28.607-36.328l0.001-214.678h98.838l0.001,214.533
				C2218.49,1260.577,2206.634,1275.712,2189.776,1279.823z"/>
			
				<linearGradient id="SVGID_00000132074043768247789820000013642248247084982165_" gradientUnits="userSpaceOnUse" x1="1760.6655" y1="437.9977" x2="1665.1819" y2="1138.2073">
				<stop  offset="0" style="stop-color:#CB236D"/>
				<stop  offset="1" style="stop-color:#4C246D"/>
			</linearGradient>
			<path style="fill:url(#SVGID_00000132074043768247789820000013642248247084982165_);" d="M1152.302,1096.838l1062.929-35.186
				c24.235-0.802,44.796-18.284,48.958-42.061c5.823-33.274,10.956-83.091,3.301-134.732
				c-8.704-58.724-59.216-102.348-118.838-103.766c-198.291-4.719-703.088-4.576-981.306,105.478
				c-29.425,11.64-51.25,36.787-58.701,67.42c-7.105,29.215-11.827,68.227-2.544,107.934
				C1111.03,1083.023,1130.553,1097.558,1152.302,1096.838z"/>
			<path style="fill:#FFFFFF;" d="M1133.891,1048.411c-5.831,0-10.826-4.41-11.426-10.338c-0.175-1.739-4.164-42.911,6.566-82.567
				c8.53-31.507,33.443-56.829,65.023-66.1c59.523-17.466,173.305-47.155,266.546-49.781c6.387-0.157,11.634,4.838,11.809,11.169
				c0.179,6.353-4.822,11.64-11.169,11.819c-90.654,2.537-202.259,31.698-260.715,48.86c-23.959,7.026-42.85,26.198-49.304,50.038
				c-9.636,35.603-5.921,73.868-5.881,74.25c0.634,6.319-3.968,11.953-10.281,12.594
				C1134.666,1048.39,1134.272,1048.411,1133.891,1048.411z"/>
			
				<linearGradient id="SVGID_00000088128763444398516680000017727267811774488975_" gradientUnits="userSpaceOnUse" x1="1789.4644" y1="983.3123" x2="1439.3613" y2="4250.9424">
				<stop  offset="0" style="stop-color:#CB236D"/>
				<stop  offset="1" style="stop-color:#4C246D"/>
			</linearGradient>
			<path style="fill:url(#SVGID_00000088128763444398516680000017727267811774488975_);" d="M551.878,1315.339
				c343.399-4.391,1828.921-19.999,2260.433,32.063c37.154,4.483,67.471,31.662,75.518,68.042
				c25.498,115.27,76.795,383.052,70.715,648.489c-0.828,36.123-27.314,66.601-62.977,73.349l-984.998,186.346h-349.889
				L511.15,2115.007c-36.994-7.354-64.263-38.686-66.178-76.184c-6.822-133.541-17.486-446.881,18.629-648.568
				C471.276,1347.398,508.145,1315.898,551.878,1315.339z"/>
			<path style="fill:#FFFFFF;" d="M1569.04,2244.498c-0.37,0-0.747-0.033-1.129-0.112l-33.818-6.724
				c-3.11-0.617-5.135-3.637-4.512-6.757c0.623-3.097,3.608-5.196,6.757-4.512l33.516,6.668c0.253-0.033,0.51-0.056,0.769-0.056
				h34.482c3.175,0,5.747,2.57,5.747,5.747c0,3.177-2.571,5.747-5.747,5.747h-34.482c-0.27,0-0.533-0.022-0.792-0.056
				C1569.573,2244.476,1569.309,2244.498,1569.04,2244.498z M1834.98,2244.498h-34.481c-3.177,0-5.747-2.57-5.747-5.747
				c0-3.177,2.57-5.747,5.747-5.747h34.481c3.175,0,5.747,2.57,5.747,5.747C1840.727,2241.928,1838.156,2244.498,1834.98,2244.498z
				 M1720.042,2244.498h-34.481c-3.177,0-5.747-2.57-5.747-5.747c0-3.177,2.57-5.747,5.747-5.747h34.481
				c3.175,0,5.747,2.57,5.747,5.747C1725.789,2241.928,1723.218,2244.498,1720.042,2244.498z M1915.207,2242.118
				c-2.712,0-5.12-1.919-5.641-4.68c-0.588-3.121,1.46-6.128,4.58-6.712l33.88-6.409c3.148-0.562,6.129,1.458,6.712,4.579
				c0.59,3.121-1.458,6.128-4.579,6.712l-33.882,6.409C1915.92,2242.085,1915.56,2242.118,1915.207,2242.118z M1456.307,2222.094
				c-0.371,0-0.747-0.033-1.128-0.113l-33.82-6.723c-3.109-0.617-5.134-3.648-4.511-6.757c0.617-3.099,3.586-5.13,6.757-4.512
				l33.818,6.724c3.109,0.617,5.135,3.637,4.512,6.757C1461.392,2220.198,1458.996,2222.094,1456.307,2222.094z M2028.141,2220.747
				c-2.71,0-5.118-1.919-5.64-4.68c-0.59-3.121,1.46-6.129,4.58-6.712l33.88-6.409c3.109-0.595,6.123,1.458,6.712,4.579
				c0.59,3.121-1.46,6.128-4.579,6.712l-33.881,6.409C2028.853,2220.714,2028.495,2220.747,2028.141,2220.747z M1343.575,2199.679
				c-0.371,0-0.747-0.033-1.129-0.113l-33.819-6.723c-3.109-0.617-5.134-3.637-4.511-6.757c0.617-3.098,3.614-5.153,6.757-4.512
				l33.818,6.724c3.109,0.617,5.136,3.636,4.512,6.757C1348.658,2197.782,1346.263,2199.679,1343.575,2199.679z M2141.075,2199.387
				c-2.71,0-5.118-1.919-5.64-4.68c-0.59-3.121,1.46-6.129,4.579-6.712l33.881-6.409c3.115-0.539,6.123,1.458,6.712,4.579
				c0.589,3.121-1.46,6.128-4.58,6.712l-33.88,6.409C2141.788,2199.354,2141.429,2199.387,2141.075,2199.387z M2254.01,2178.015
				c-2.71,0-5.118-1.919-5.64-4.68c-0.59-3.121,1.458-6.129,4.579-6.712l33.881-6.409c3.121-0.561,6.123,1.46,6.712,4.579
				c0.588,3.121-1.46,6.128-4.58,6.712l-33.881,6.409C2254.723,2177.982,2254.364,2178.015,2254.01,2178.015z M1230.843,2177.275
				c-0.372,0-0.747-0.033-1.129-0.113l-33.819-6.723c-3.109-0.618-5.134-3.637-4.511-6.757c0.623-3.109,3.592-5.175,6.756-4.512
				l33.819,6.723c3.109,0.618,5.135,3.648,4.513,6.757C1235.926,2175.377,1233.53,2177.275,1230.843,2177.275z M2366.945,2156.655
				c-2.711,0-5.118-1.919-5.64-4.68c-0.59-3.121,1.458-6.129,4.579-6.712l33.882-6.409c3.125-0.606,6.123,1.47,6.711,4.579
				c0.59,3.121-1.458,6.13-4.579,6.712l-33.882,6.409C2367.657,2156.622,2367.298,2156.655,2366.945,2156.655z M1118.11,2154.86
				c-0.371,0-0.747-0.033-1.123-0.113l-33.819-6.712c-3.115-0.617-5.135-3.637-4.517-6.757c0.612-3.098,3.664-5.196,6.751-4.511
				l33.818,6.712c3.115,0.617,5.141,3.637,4.518,6.756C1123.199,2152.962,1120.797,2154.86,1118.11,2154.86z M2479.879,2135.285
				c-2.711,0-5.118-1.919-5.641-4.681c-0.588-3.119,1.46-6.129,4.58-6.711l33.88-6.41c3.132-0.538,6.124,1.46,6.712,4.58
				c0.59,3.121-1.459,6.128-4.579,6.712l-33.881,6.409C2480.592,2135.25,2480.232,2135.285,2479.879,2135.285z M1005.377,2132.456
				c-0.371,0-0.747-0.034-1.129-0.113l-33.819-6.724c-3.109-0.617-5.135-3.636-4.513-6.756c0.623-3.099,3.598-5.13,6.757-4.512
				l33.819,6.723c3.109,0.617,5.135,3.637,4.512,6.757C1010.461,2130.558,1008.065,2132.456,1005.377,2132.456z M2592.814,2113.925
				c-2.711,0-5.119-1.919-5.641-4.681c-0.588-3.119,1.46-6.129,4.58-6.711l33.88-6.41c3.138-0.583,6.123,1.46,6.712,4.58
				c0.59,3.121-1.458,6.128-4.579,6.712l-33.881,6.409C2593.527,2113.89,2593.167,2113.925,2592.814,2113.925z M892.644,2110.052
				c-0.37,0-0.746-0.034-1.128-0.113l-33.819-6.724c-3.109-0.617-5.135-3.637-4.513-6.757c0.618-3.109,3.627-5.152,6.757-4.511
				l33.819,6.723c3.109,0.617,5.135,3.648,4.513,6.757C897.729,2108.155,895.332,2110.052,892.644,2110.052z M2705.748,2092.553
				c-2.71,0-5.118-1.919-5.64-4.68c-0.59-3.121,1.46-6.129,4.58-6.712l33.88-6.409c3.142-0.517,6.129,1.47,6.712,4.579
				c0.59,3.121-1.46,6.128-4.579,6.712l-33.881,6.409C2706.462,2092.52,2706.102,2092.553,2705.748,2092.553z M779.911,2087.637
				c-0.37,0-0.746-0.035-1.128-0.113l-33.819-6.724c-3.109-0.617-5.136-3.637-4.513-6.757c0.623-3.109,3.603-5.163,6.757-4.511
				l33.819,6.723c3.109,0.617,5.135,3.636,4.512,6.757C784.996,2085.74,782.6,2087.637,779.911,2087.637z M2818.683,2071.193
				c-2.71,0-5.118-1.919-5.64-4.68c-0.59-3.121,1.46-6.129,4.579-6.712l33.882-6.409c3.148-0.551,6.128,1.458,6.712,4.579
				c0.588,3.121-1.46,6.128-4.58,6.712l-33.88,6.409C2819.395,2071.159,2819.037,2071.193,2818.683,2071.193z M667.179,2065.232
				c-0.37,0-0.746-0.033-1.128-0.112l-33.819-6.724c-3.109-0.617-5.135-3.636-4.513-6.757c0.617-3.098,3.631-5.196,6.757-4.513
				l33.819,6.724c3.109,0.617,5.135,3.637,4.513,6.757C672.264,2063.336,669.867,2065.232,667.179,2065.232z M554.446,2042.828
				c-0.37,0-0.746-0.033-1.128-0.111l-29.211-5.815l-0.685-13.66c-0.152-3.165,2.295-5.858,5.466-6.004
				c3.092-0.64,5.864,2.278,6.016,5.465l0.231,4.681l20.428,4.063c3.109,0.617,5.135,3.648,4.512,6.757
				C559.531,2040.943,557.135,2042.828,554.446,2042.828z M2874.02,2001.938c-3.144,0-5.708-2.525-5.747-5.679
				c-0.146-11.484-0.387-22.943-0.724-34.37c-0.09-3.176,2.408-5.814,5.578-5.915c2.998,0.09,5.821,2.391,5.916,5.578
				c0.337,11.494,0.578,23.022,0.724,34.571c0.039,3.165-2.503,5.77-5.675,5.815
				C2874.07,2001.938,2874.041,2001.938,2874.02,2001.938z M525.852,1948.319c-3.08,0-5.634-2.447-5.735-5.556
				c-0.376-11.067-0.73-22.596-1.055-34.504c-0.084-3.177,2.419-5.814,5.59-5.904c3.104,0.27,5.815,2.414,5.904,5.591
				c0.326,11.886,0.674,23.391,1.044,34.437c0.107,3.165-2.379,5.825-5.55,5.938C525.988,1948.319,525.92,1948.319,525.852,1948.319
				z M2869.49,1887.123c-3.002,0-5.533-2.334-5.73-5.376c-0.746-11.528-1.565-22.966-2.458-34.336
				c-0.247-3.165,2.116-5.927,5.281-6.173c3.121-0.382,5.932,2.121,6.179,5.274c0.892,11.416,1.723,22.921,2.469,34.493
				c0.202,3.165-2.2,5.904-5.365,6.107C2869.743,1887.123,2869.614,1887.123,2869.49,1887.123z M523.226,1833.392
				c-3.143,0-5.714-2.525-5.747-5.679c-0.129-11.336-0.224-22.865-0.275-34.526c-0.012-3.177,2.548-5.758,5.724-5.77
				c0.006,0,0.017,0,0.017,0c3.171,0,5.741,2.56,5.753,5.725c0.051,11.64,0.146,23.122,0.275,34.437
				c0.033,3.176-2.508,5.78-5.679,5.814H523.226z M2859.528,1772.556c-2.895,0-5.387-2.178-5.707-5.13
				c-1.251-11.55-2.554-22.954-3.912-34.201c-0.376-3.142,1.869-6.005,5.017-6.387c3.21-0.438,6.017,1.863,6.399,5.018
				c1.357,11.292,2.671,22.741,3.923,34.335c0.343,3.154-1.942,5.993-5.096,6.33
				C2859.944,1772.545,2859.736,1772.556,2859.528,1772.556z M523.372,1718.443h-0.09c-3.171-0.045-5.702-2.661-5.657-5.838
				c0.175-11.471,0.405-22.998,0.697-34.537c0.078-3.177,2.727-5.5,5.893-5.601c3.17,0.078,5.679,2.716,5.601,5.893
				c-0.292,11.494-0.522,22.988-0.696,34.425C529.068,1715.928,526.51,1718.443,523.372,1718.443z M2844.948,1658.516
				c-2.807,0-5.259-2.054-5.68-4.916c-1.712-11.618-3.446-22.977-5.191-34.045c-0.5-3.131,1.644-6.084,4.776-6.577
				c3.109-0.471,6.078,1.649,6.572,4.781c1.756,11.112,3.502,22.516,5.214,34.178c0.46,3.132-1.711,6.05-4.849,6.522
				C2845.509,1658.493,2845.223,1658.516,2844.948,1658.516z M527.127,1603.538c-0.101,0-0.202,0-0.303-0.012
				c-3.171-0.157-5.607-2.862-5.444-6.039c0.606-11.572,1.285-23.089,2.043-34.503c0.214-3.177,2.947-5.68,6.117-5.354
				c3.165,0.213,5.562,2.952,5.355,6.117c-0.759,11.37-1.437,22.819-2.032,34.347
				C532.699,1601.159,530.162,1603.538,527.127,1603.538z M2826.209,1545.047c-2.722,0-5.141-1.941-5.646-4.714
				c-2.178-11.865-4.316-23.157-6.393-33.831c-0.606-3.121,1.426-6.14,4.541-6.746c3.109-0.617,6.134,1.437,6.74,4.546
				c2.087,10.719,4.237,22.056,6.415,33.965c0.572,3.121-1.493,6.117-4.613,6.689
				C2826.899,1545.014,2826.552,1545.047,2826.209,1545.047z M536.135,1488.948c-0.208,0-0.422-0.011-0.634-0.034
				c-3.154-0.347-5.433-3.187-5.085-6.341c1.291-11.696,2.694-23.178,4.209-34.38c0.432-3.144,3.323-5.5,6.465-4.917
				c3.148,0.426,5.354,3.311,4.927,6.465c-1.503,11.112-2.895,22.483-4.176,34.09
				C541.516,1486.771,539.024,1488.948,536.135,1488.948z M2798.557,1436.968c-0.219,0-0.442-0.011-0.672-0.033
				c-10.641-1.246-22.039-2.48-34.179-3.671c-3.16-0.314-5.472-3.131-5.157-6.285c0.308-3.165,3.031-5.287,6.28-5.164
				c12.218,1.213,23.683,2.447,34.392,3.693c3.148,0.371,5.41,3.222,5.039,6.376
				C2803.917,1434.813,2801.436,1436.968,2798.557,1436.968z M2684.086,1426.619c-0.14,0-0.281,0-0.421-0.011
				c-11.052-0.797-22.506-1.571-34.353-2.323c-3.166-0.202-5.573-2.93-5.371-6.095c0.197-3.187,2.952-5.589,6.101-5.377
				c11.881,0.753,23.369,1.527,34.453,2.324c3.166,0.236,5.545,2.986,5.315,6.15
				C2689.597,1424.306,2687.07,1426.619,2684.086,1426.619z M2569.344,1419.76c-0.101,0-0.196,0-0.298-0.01
				c-11.208-0.572-22.679-1.123-34.415-1.662c-3.17-0.146-5.623-2.829-5.477-5.994c0.146-3.164,2.895-5.691,6.004-5.477
				c11.758,0.539,23.246,1.089,34.471,1.661c3.17,0.157,5.611,2.862,5.449,6.027
				C2574.922,1417.381,2572.379,1419.76,2569.344,1419.76z M2454.511,1414.732c-0.072,0-0.146,0-0.224,0l-34.442-1.246
				c-3.176-0.111-5.657-2.772-5.545-5.948c0.113-3.155,2.941-5.501,5.938-5.546l34.487,1.246c3.171,0.124,5.646,2.795,5.523,5.961
				C2460.13,1412.296,2457.582,1414.732,2454.511,1414.732z M2339.624,1410.904c-0.061,0-0.117,0-0.173,0l-34.458-0.976
				c-3.171-0.09-5.675-2.728-5.591-5.904c0.084-3.177,2.29-5.511,5.904-5.589l34.481,0.976c3.177,0.101,5.669,2.75,5.578,5.916
				C2345.27,1408.447,2342.717,1410.904,2339.624,1410.904z M2224.72,1407.93c-0.045,0-0.09,0-0.09,0l-34.516-0.763
				c-3.171-0.067-5.691-2.693-5.623-5.87c0.067-3.132,2.626-5.624,5.747-5.624c0,0,0.078,0,0.123,0l34.481,0.763
				c3.177,0.079,5.691,2.706,5.618,5.882C2230.388,1405.438,2227.829,1407.93,2224.72,1407.93z M2109.792,1405.618
				c-0.033,0-0.072,0-0.106,0l-34.471-0.595c-3.17-0.056-5.702-2.671-5.652-5.836c0.051-3.142,2.616-5.657,5.747-5.657h0.095
				l34.493,0.595c3.177,0.055,5.696,2.683,5.64,5.858C2115.479,1403.115,2112.919,1405.618,2109.792,1405.618z M580.841,1405.607
				c-3.142,0-5.708-2.525-5.747-5.669c-0.039-3.176,2.503-5.78,5.674-5.825l34.509-0.415h0.068c3.142,0,5.708,2.525,5.747,5.679
				c0.039,3.177-2.503,5.78-5.68,5.815l-34.498,0.415C580.891,1405.607,580.864,1405.607,580.841,1405.607z M695.835,1404.293
				c-3.148,0-5.714-2.537-5.747-5.691c-0.033-3.177,2.514-5.769,5.691-5.803l34.499-0.347c0.022,0,0.039,0,0.039,0
				c3.166,0,5.735,2.537,5.764,5.691c0.028,3.176-2.521,5.769-5.692,5.803l-34.497,0.347
				C695.875,1404.293,695.852,1404.293,695.835,1404.293z M1994.854,1403.81c-0.022,0-0.051,0-0.078,0l-34.47-0.448
				c-3.171-0.045-5.714-2.649-5.674-5.815c0.039-3.154,2.604-5.679,5.747-5.679c0,0,0.045,0,0.074,0l34.481,0.448
				c3.176,0.045,5.712,2.649,5.668,5.826C2000.557,1401.285,1997.992,1403.81,1994.854,1403.81z M810.824,1403.183
				c-3.148,0-5.72-2.538-5.747-5.692c-0.028-3.176,2.519-5.769,5.696-5.802l34.499-0.303c0.016,0,0.034,0,0.034,0
				c3.171,0,5.735,2.537,5.764,5.702c0.028,3.165-2.526,5.769-5.696,5.792l-34.499,0.303
				C810.857,1403.183,810.841,1403.183,810.824,1403.183z M1879.922,1402.453c-0.016,0-0.039,0-0.039,0l-34.493-0.325
				c-3.17-0.023-5.724-2.627-5.696-5.793c0.029-3.164,2.593-5.701,5.747-5.701c0.017,0,0.035,0,0.035,0l34.504,0.325
				c3.177,0.033,5.725,2.626,5.69,5.803C1885.636,1399.916,1883.071,1402.453,1879.922,1402.453z M925.801,1402.251
				c-3.154,0-5.724-2.548-5.747-5.702c-0.022-3.177,2.531-5.77,5.708-5.792l34.481-0.247h0.045c3.154,0,5.724,2.548,5.747,5.702
				c0.023,3.177-2.531,5.77-5.702,5.792l-34.493,0.247H925.801z M1764.984,1401.476h-0.039l-34.476-0.224
				c-3.171-0.023-5.73-2.604-5.714-5.78c0.017-3.165,2.587-5.714,5.747-5.714h0.035l34.486,0.224
				c3.177,0.023,5.731,2.616,5.708,5.792C1770.709,1398.928,1768.138,1401.476,1764.984,1401.476z M1040.778,1401.476
				c-3.16,0-5.73-2.548-5.747-5.714c-0.016-3.176,2.537-5.757,5.714-5.78l34.499-0.191c0.01,0,0.016,0,0.016,0
				c3.171,0,5.741,2.56,5.758,5.725c0.017,3.164-2.548,5.757-5.719,5.769l-34.486,0.191
				C1040.813,1401.476,1040.79,1401.476,1040.778,1401.476z M1155.756,1400.904c-3.164,0-5.735-2.558-5.747-5.724
				c-0.01-3.177,2.548-5.758,5.725-5.77l34.493-0.134h0.016c3.171,0,5.741,2.558,5.753,5.724c0.012,3.177-2.548,5.758-5.724,5.77
				l-34.493,0.134H1155.756z M1650.04,1400.814h-0.016l-34.487-0.135c-3.177-0.011-5.735-2.593-5.725-5.77
				c0.012-3.165,2.583-5.724,5.747-5.724h0.023l34.481,0.135c3.177,0.011,5.735,2.593,5.724,5.769
				C1655.777,1398.254,1653.206,1400.814,1650.04,1400.814z M1270.722,1400.511c-3.165,0-5.735-2.559-5.747-5.724
				c-0.011-3.177,2.554-5.758,5.73-5.77l34.493-0.078c2.946-0.236,5.753,2.57,5.758,5.735c0.006,3.177-2.56,5.747-5.735,5.758
				l-34.481,0.078H1270.722z M1535.092,1400.444h-0.006l-34.481-0.056c-3.177,0-5.747-2.581-5.741-5.758
				c0.006-3.165,2.576-5.735,5.747-5.735h0.006l34.486,0.056c3.177,0.01,5.742,2.582,5.737,5.757
				C1540.833,1397.873,1538.262,1400.444,1535.092,1400.444z M1385.672,1400.331c-3.171,0-5.741-2.57-5.747-5.735
				c-0.006-3.177,2.564-5.758,5.741-5.758h34.375c3.171,0,5.803,2.582,5.797,5.747c0,3.177-2.515,5.747-5.685,5.747h-34.476
				H1385.672z"/>
			
				<linearGradient id="SVGID_00000021111668572001944490000010207207340969797274_" gradientUnits="userSpaceOnUse" x1="1814.8695" y1="1386.5814" x2="1676.9492" y2="2479.3293">
				<stop  offset="0" style="stop-color:#A737D5"/>
				<stop  offset="1" style="stop-color:#EF497A"/>
			</linearGradient>
			<path style="fill:url(#SVGID_00000021111668572001944490000010207207340969797274_);" d="M1877.626,2470.526h-306.53
				c-40.17,0-73.998-29.887-78.764-69.586l-35.416-294.961c-5.642-46.986,31.222-88.323,78.765-88.323h368.242
				c46.579,0,83.132,39.755,79.016,85.932l-26.299,294.962C1953.008,2439.292,1918.717,2470.526,1877.626,2470.526z"/>
			<defs>
				
					<filter id="Adobe_OpacityMaskFilter" filterUnits="userSpaceOnUse" x="1519.282" y="2071.592" width="401.037" height="344.683">
					<feFlood  style="flood-color:white;flood-opacity:1" result="back"/>
					<feBlend  in="SourceGraphic" in2="back" mode="normal"/>
				</filter>
			</defs>
			
				<mask maskUnits="userSpaceOnUse" x="1519.282" y="2071.592" width="401.037" height="344.683" id="SVGID_00000061431244974195024760000008355212391107190444_">
				<g style="filter:url(#Adobe_OpacityMaskFilter);">
					<defs>
						
							<filter id="Adobe_OpacityMaskFilter_00000038397804263070454570000018349697864310979472_" filterUnits="userSpaceOnUse" x="1519.282" y="2071.592" width="401.037" height="344.683">
							<feFlood  style="flood-color:white;flood-opacity:1" result="back"/>
							<feBlend  in="SourceGraphic" in2="back" mode="normal"/>
						</filter>
					</defs>
					
						<mask maskUnits="userSpaceOnUse" x="1519.282" y="2071.592" width="401.037" height="344.683" id="SVGID_00000061431244974195024760000008355212391107190444_">
						<g style="filter:url(#Adobe_OpacityMaskFilter_00000038397804263070454570000018349697864310979472_);">
						</g>
					</mask>
					
						<linearGradient id="SVGID_00000130621867978297456900000015881452306471761799_" gradientUnits="userSpaceOnUse" x1="1519.2819" y1="2243.9333" x2="1920.3188" y2="2243.9333">
						<stop  offset="0" style="stop-color:#FFFFFF"/>
						<stop  offset="1" style="stop-color:#000000"/>
					</linearGradient>
					
						<path style="mask:url(#SVGID_00000061431244974195024760000008355212391107190444_);fill:url(#SVGID_00000130621867978297456900000015881452306471761799_);" d="
						M1839.923,2416.275H1606.62c-30.574,0-56.321-22.746-59.949-52.961l-26.954-224.5c-4.293-35.761,23.764-67.223,59.948-67.223
						h280.274c35.45,0,63.271,30.257,60.139,65.406l-20.016,224.497C1897.296,2392.502,1871.198,2416.275,1839.923,2416.275z"/>
				</g>
			</mask>
			
				<linearGradient id="SVGID_00000054234401214442673710000016925570336817130377_" gradientUnits="userSpaceOnUse" x1="1519.2819" y1="2243.9333" x2="1920.3188" y2="2243.9333">
				<stop  offset="0" style="stop-color:#FFFFFF"/>
				<stop  offset="1" style="stop-color:#FFFFFF"/>
			</linearGradient>
			<path style="opacity:0.32;fill:url(#SVGID_00000054234401214442673710000016925570336817130377_);" d="M1839.923,2416.275
				H1606.62c-30.574,0-56.321-22.746-59.949-52.961l-26.954-224.5c-4.293-35.761,23.764-67.223,59.948-67.223h280.274
				c35.45,0,63.271,30.257,60.139,65.406l-20.016,224.497C1897.296,2392.502,1871.198,2416.275,1839.923,2416.275z"/>
		</g>
		<g>
			
				<linearGradient id="SVGID_00000087389221256304767770000007194300048515671484_" gradientUnits="userSpaceOnUse" x1="2418.4927" y1="2974.7771" x2="2315.2671" y2="-80.7527" gradientTransform="matrix(1 0.0088 -0.0088 1 45.5298 2.4692)">
				<stop  offset="0" style="stop-color:#2B3582"/>
				<stop  offset="1" style="stop-color:#150E42"/>
			</linearGradient>
			<path style="fill:url(#SVGID_00000087389221256304767770000007194300048515671484_);" d="M1725.69,1382.385
				c0.638-72.892,60.247-131.465,133.139-130.827l1122.388,9.831c61.921,0.542,112.555,49.515,115.162,111.384l68.595,1627.979
				c2.04,48.414-36.412,88.9-84.867,89.357l-1286.604,12.112c-45.53,0.428-82.557-36.574-82.159-82.105L1725.69,1382.385z"/>
			<path style="fill:#FFFFFF;" d="M1981.755,3076.205l-0.04,0l-143.924-3.121c-48.125-1.046-86.934-41.055-86.513-89.188
				l1.904-217.323c0.015-1.698,1.403-3.061,3.1-3.046c1.697,0.015,3.061,1.401,3.046,3.1l-1.904,217.323
				c-0.392,44.786,35.719,82.014,80.5,82.989l143.923,3.122c1.697,0.036,3.042,1.443,3.007,3.138
				C1984.816,3074.882,1983.433,3076.22,1981.755,3076.205z"/>
			<path style="fill:#FFFFFF;" d="M1756.817,2702.355c-1.697-0.015-3.061-1.401-3.046-3.1l0.308-35.195
				c0.015-1.698,1.403-3.061,3.1-3.046c1.697,0.015,3.061,1.401,3.046,3.1l-0.308,35.195
				C1759.902,2701.007,1758.514,2702.37,1756.817,2702.355z"/>
			<g>
				
					<linearGradient id="SVGID_00000129907727979326636090000008277196438191113900_" gradientUnits="userSpaceOnUse" x1="3373.3743" y1="1300.8092" x2="613.7272" y2="3770.6897">
					<stop  offset="0" style="stop-color:#53D8FF"/>
					<stop  offset="1" style="stop-color:#3840F7"/>
				</linearGradient>
				<path style="fill:url(#SVGID_00000129907727979326636090000008277196438191113900_);" d="M1818.578,1276.254
					c0.067-23.322,20.735-41.193,43.818-37.856c153.09,22.128,679.591,91.029,1115.653,61.395
					c19.886-1.351,37.001,13.857,37.884,33.769l72.553,1635.268c0.995,22.422-16.287,41.437-38.702,42.567
					c-183.372,9.241-938.529,44.557-1207.505,14.001c-16.37-1.86-28.687-15.764-28.64-32.24L1818.578,1276.254z"/>
				<path style="opacity:0.6;fill:#FFFFFF;" d="M1836.274,1317.372c0.064-22.444,19.954-39.641,42.168-36.43
					c147.325,21.294,654,87.602,1073.643,59.083c19.137-1.3,35.607,13.335,36.457,32.498l69.822,1573.691
					c0.958,21.578-15.674,39.877-37.245,40.964c-176.467,8.893-903.188,42.879-1162.035,13.473
					c-15.754-1.79-27.607-15.17-27.561-31.026L1836.274,1317.372z"/>
				<g style="opacity:0.6;">
					<path style="fill:#FFFFFF;" d="M2102.638,1467.837c1.868,12.682,8.608,21.528,16.369,21.484l632.513-3.561
						c7.155-0.04,12.966-9.948,12.915-22.022c-0.049-11.739-5.631-21.184-12.587-21.299l-632.408-10.408
						C2108.278,1431.846,2099.95,1449.592,2102.638,1467.837z"/>
				</g>
				<g>
					<path style="fill:#FFFFFF;" d="M2063.858,2389.719c-0.072-0.001-0.146-0.001-0.219-0.002l-80.032-1.469
						c-11.434-0.211-20.805-8.163-21.798-18.492l-6.447-67.217c-0.378-3.947,0.88-7.831,3.543-10.945
						c2.98-3.482,7.464-5.646,12.3-5.937l0,0c6.747-0.4,16.251-1.127,26.311-1.894c21.185-1.618,47.551-3.629,62.376-3.685
						c10.756,0.04,19.823,6.485,22.275,15.873c4.035,15.452,3.413,44.631,2.347,75.71
						C2084.169,2381.758,2074.924,2389.816,2063.858,2389.719z M1971.571,2291.796c-3.18,0.188-6.094,1.573-7.995,3.796
						c-1.569,1.832-2.313,4.091-2.095,6.359l6.447,67.217c0.693,7.221,7.483,12.782,15.793,12.935l80.032,1.469
						c0.052,0,0.106,0.001,0.16,0.001c7.756,0.068,14.226-5.34,14.459-12.121c1.049-30.609,1.674-59.295-2.152-73.95
						c-1.715-6.567-8.491-11.185-16.304-11.277c-14.604,0.055-40.846,2.058-61.931,3.668
						C1987.897,2290.663,1978.368,2291.39,1971.571,2291.796L1971.571,2291.796z"/>
					<path style="opacity:0.6;fill:#FFFFFF;" d="M1980.121,2298.802c16.824-1.002,53.402-4.392,70.736-4.456
						c7.345-0.027,13.748,4.466,15.414,10.85c3.237,12.398,2.578,37.048,1.798,59.797c-0.234,6.813-6.54,12.198-14.182,12.058
						l-63.956-1.175c-7.865-0.144-14.348-5.565-15.019-12.556l-5.153-53.715C1969.225,2304.049,1973.885,2299.173,1980.121,2298.802
						z"/>
					<g style="opacity:0.6;">
						<path style="fill:#FFFFFF;" d="M2134.549,2345.744c2.24,8.807,10.169,14.972,19.256,14.975l740.61,0.173
							c8.378,0.002,15.14-6.848,15.031-15.225c-0.107-8.145-6.682-14.722-14.827-14.83l-740.545-9.864
							C2141.003,2320.797,2131.326,2333.074,2134.549,2345.744z"/>
					</g>
					<path style="fill:#FFFFFF;" d="M2063.773,2591.612c-0.072-0.001-0.146-0.001-0.219-0.002l-80.032-1.469
						c-11.434-0.211-20.805-8.162-21.798-18.492l-6.447-67.217c-0.378-3.947,0.88-7.831,3.543-10.944
						c2.98-3.483,7.464-5.646,12.3-5.937l0,0c6.747-0.4,16.251-1.127,26.311-1.895c21.185-1.618,47.551-3.629,62.376-3.685
						c0.108,0.001,0.216-0.001,0.323,0c10.526,0.092,19.525,6.582,21.953,15.874c4.035,15.453,3.413,44.631,2.347,75.71
						C2084.084,2583.65,2074.839,2591.708,2063.773,2591.612z M1971.486,2493.688c-3.18,0.188-6.094,1.573-7.995,3.796
						c-1.569,1.832-2.313,4.091-2.095,6.359l6.447,67.217c0.693,7.221,7.483,12.781,15.793,12.936l80.032,1.469
						c0.052,0,0.106,0.001,0.16,0.001c7.756,0.068,14.226-5.34,14.459-12.121c1.049-30.609,1.674-59.295-2.152-73.95
						c-1.716-6.563-8.588-11.333-16.305-11.277c-14.603,0.055-40.845,2.058-61.93,3.668
						C1987.812,2492.555,1978.283,2493.282,1971.486,2493.688L1971.486,2493.688z"/>
					<path style="opacity:0.6;fill:#FFFFFF;" d="M1980.036,2500.694c16.824-1.002,53.402-4.392,70.736-4.457
						c7.345-0.027,13.747,4.466,15.414,10.85c3.237,12.398,2.578,37.048,1.798,59.797c-0.234,6.813-6.54,12.198-14.182,12.058
						l-63.956-1.175c-7.865-0.144-14.348-5.564-15.019-12.556l-5.153-53.715C1969.14,2505.941,1973.8,2501.065,1980.036,2500.694z"
						/>
					<g style="opacity:0.6;">
						<path style="fill:#FFFFFF;" d="M2134.464,2547.636c2.24,8.807,10.169,14.972,19.256,14.975l740.61,0.173
							c8.378,0.002,15.14-6.848,15.031-15.225c-0.107-8.145-6.682-14.721-14.827-14.83l-740.545-9.865
							C2140.918,2522.689,2131.241,2534.966,2134.464,2547.636z"/>
					</g>
					<path style="fill:#FFFFFF;" d="M2060.748,2795.279c-0.072-0.001-0.146-0.001-0.219-0.002l-80.032-1.469
						c-11.434-0.208-20.805-8.157-21.798-18.49l-6.447-67.217c-0.378-3.947,0.88-7.835,3.544-10.948
						c2.981-3.482,7.462-5.646,12.299-5.937l0,0c6.747-0.4,16.251-1.127,26.311-1.894c21.185-1.618,47.551-3.629,62.376-3.685
						c0.108,0.001,0.216-0.001,0.323,0c10.526,0.092,19.525,6.582,21.953,15.874c4.035,15.453,3.413,44.631,2.347,75.711
						C2081.059,2787.318,2071.814,2795.376,2060.748,2795.279z M1968.461,2697.355c-3.18,0.188-6.094,1.573-7.995,3.795
						c-1.569,1.832-2.313,4.091-2.095,6.362l6.447,67.217c0.693,7.221,7.483,12.782,15.792,12.932l80.033,1.469
						c0.052,0,0.106,0.001,0.16,0.001c7.756,0.068,14.226-5.341,14.459-12.121c1.049-30.609,1.674-59.295-2.152-73.95
						c-1.716-6.564-8.587-11.357-16.305-11.277c-14.603,0.055-40.845,2.058-61.93,3.668
						C1984.787,2696.223,1975.257,2696.95,1968.461,2697.355L1968.461,2697.355z"/>
					<path style="opacity:0.6;fill:#FFFFFF;" d="M1977.01,2704.362c16.824-1.002,53.402-4.392,70.736-4.456
						c7.345-0.027,13.747,4.466,15.414,10.85c3.237,12.398,2.578,37.048,1.798,59.798c-0.234,6.813-6.54,12.198-14.182,12.058
						l-63.956-1.174c-7.865-0.145-14.348-5.565-15.019-12.556l-5.153-53.715C1966.115,2709.609,1970.774,2704.734,1977.01,2704.362z
						"/>
					<g style="opacity:0.6;">
						<path style="fill:#FFFFFF;" d="M2131.439,2751.304c2.24,8.807,10.169,14.973,19.256,14.975l740.61,0.173
							c8.378,0.002,15.141-6.847,15.031-15.225c-0.107-8.145-6.682-14.721-14.827-14.83l-740.545-9.865
							C2137.892,2726.357,2128.215,2738.634,2131.439,2751.304z"/>
					</g>
					<path style="fill:#FFFFFF;" d="M2059.615,1762.883c-0.072-0.001-0.146-0.001-0.219-0.002l-80.032-1.469
						c-11.434-0.211-20.805-8.162-21.798-18.492l-6.447-67.217c-0.378-3.947,0.88-7.831,3.543-10.944
						c2.98-3.483,7.464-5.646,12.3-5.937l0,0c6.747-0.4,16.251-1.127,26.311-1.895c21.185-1.618,47.551-3.629,62.376-3.685
						c0.108,0.001,0.216-0.001,0.323,0c10.526,0.092,19.525,6.582,21.953,15.873c4.035,15.453,3.413,44.631,2.347,75.71
						C2079.926,1754.921,2070.68,1762.979,2059.615,1762.883z M1967.327,1664.959c-3.18,0.188-6.094,1.573-7.995,3.796
						c-1.569,1.832-2.313,4.091-2.095,6.359l6.447,67.217c0.693,7.221,7.483,12.782,15.793,12.936l80.032,1.469
						c0.052,0,0.106,0.001,0.16,0.001c7.756,0.068,14.226-5.34,14.459-12.121c1.049-30.609,1.674-59.295-2.152-73.95
						c-1.716-6.563-8.588-11.333-16.306-11.277c-14.603,0.055-40.844,2.058-61.93,3.668
						C1983.653,1663.826,1974.124,1664.553,1967.327,1664.959L1967.327,1664.959z"/>
					<path style="opacity:0.6;fill:#FFFFFF;" d="M1975.877,1671.965c16.824-1.002,53.402-4.392,70.736-4.457
						c7.345-0.027,13.748,4.466,15.414,10.85c3.237,12.398,2.578,37.048,1.798,59.797c-0.234,6.813-6.54,12.198-14.182,12.058
						l-63.956-1.175c-7.865-0.144-14.348-5.564-15.019-12.556l-5.153-53.715C1964.981,1677.212,1969.641,1672.337,1975.877,1671.965
						z"/>
					<g style="opacity:0.6;">
						<path style="fill:#FFFFFF;" d="M2130.305,1718.907c2.24,8.807,10.169,14.972,19.256,14.975l740.61,0.172
							c8.378,0.002,15.14-6.848,15.031-15.225c-0.107-8.145-6.682-14.721-14.827-14.83l-740.545-9.865
							C2136.759,1693.96,2127.082,1706.237,2130.305,1718.907z"/>
					</g>
					<path style="fill:#FFFFFF;" d="M2059.2,1967.552c-0.072-0.001-0.146-0.001-0.219-0.002l-80.032-1.469
						c-11.434-0.208-20.805-8.157-21.798-18.489l-6.447-67.217c-0.378-3.947,0.88-7.834,3.544-10.947
						c2.981-3.482,7.462-5.646,12.298-5.937l0,0c6.747-0.4,16.251-1.127,26.311-1.894c21.185-1.618,47.551-3.629,62.376-3.685
						c0.108,0.001,0.216-0.001,0.323,0c10.526,0.092,19.525,6.582,21.953,15.874c4.035,15.453,3.413,44.63,2.347,75.711
						C2079.511,1959.59,2070.266,1967.649,2059.2,1967.552z M1966.913,1869.628c-3.18,0.188-6.094,1.573-7.995,3.795
						c-1.569,1.832-2.313,4.091-2.095,6.362l6.447,67.217c0.693,7.221,7.483,12.782,15.792,12.932l80.033,1.469
						c0.052,0,0.106,0.001,0.16,0.001c7.756,0.068,14.226-5.341,14.459-12.121c1.049-30.609,1.674-59.295-2.152-73.95
						c-1.716-6.564-8.587-11.357-16.305-11.277c-14.603,0.055-40.845,2.058-61.93,3.668
						C1983.239,1868.496,1973.71,1869.222,1966.913,1869.628L1966.913,1869.628z"/>
					<path style="opacity:0.6;fill:#FFFFFF;" d="M1975.463,1876.635c16.824-1.002,53.402-4.392,70.736-4.456
						c7.345-0.027,13.747,4.466,15.414,10.85c3.237,12.398,2.578,37.048,1.798,59.797c-0.234,6.813-6.54,12.198-14.182,12.058
						l-63.956-1.174c-7.865-0.144-14.348-5.565-15.019-12.556l-5.153-53.715C1964.567,1881.882,1969.226,1877.006,1975.463,1876.635
						z"/>
					<g style="opacity:0.6;">
						<path style="fill:#FFFFFF;" d="M2129.891,1923.576c2.24,8.807,10.169,14.973,19.256,14.975l740.61,0.173
							c8.378,0.002,15.141-6.848,15.031-15.225c-0.107-8.145-6.683-14.721-14.827-14.83l-740.545-9.865
							C2136.345,1898.63,2126.668,1910.907,2129.891,1923.576z"/>
					</g>
					<path style="fill:#FFFFFF;" d="M2064.142,2174.258c-0.072,0-0.146-0.001-0.219-0.002l-80.032-1.469
						c-11.434-0.208-20.805-8.156-21.798-18.489l-6.447-67.217c-0.378-3.947,0.88-7.834,3.544-10.947
						c2.981-3.482,7.462-5.646,12.298-5.937l0,0c6.747-0.4,16.251-1.127,26.311-1.895c21.185-1.618,47.551-3.629,62.376-3.685
						c0.108,0.001,0.216-0.001,0.323,0c10.526,0.092,19.525,6.581,21.953,15.874c4.035,15.452,3.413,44.63,2.347,75.71
						C2084.453,2166.297,2075.208,2174.355,2064.142,2174.258z M1971.855,2076.334c-3.18,0.188-6.094,1.573-7.995,3.796
						c-1.569,1.832-2.313,4.091-2.095,6.362l6.447,67.217c0.693,7.221,7.483,12.782,15.792,12.932l80.033,1.469
						c0.052,0,0.106,0.001,0.16,0.001c7.756,0.068,14.226-5.34,14.459-12.121c1.049-30.609,1.674-59.295-2.152-73.95
						c-1.716-6.564-8.587-11.378-16.305-11.277c-14.603,0.055-40.845,2.058-61.93,3.668
						C1988.181,2075.202,1978.652,2075.929,1971.855,2076.334L1971.855,2076.334z"/>
					<path style="opacity:0.6;fill:#FFFFFF;" d="M1980.405,2083.342c16.824-1.002,53.402-4.392,70.736-4.457
						c7.345-0.027,13.748,4.466,15.414,10.85c3.237,12.398,2.578,37.048,1.798,59.797c-0.234,6.813-6.54,12.198-14.182,12.058
						l-63.956-1.174c-7.865-0.145-14.348-5.565-15.019-12.556l-5.153-53.715C1969.509,2088.588,1974.168,2083.713,1980.405,2083.342
						z"/>
					<g style="opacity:0.6;">
						<path style="fill:#FFFFFF;" d="M2134.833,2130.283L2134.833,2130.283c2.24,8.807,10.169,14.973,19.256,14.975l740.61,0.173
							c8.378,0.002,15.141-6.848,15.031-15.226c-0.107-8.144-6.683-14.721-14.827-14.83l-740.545-9.865
							C2141.287,2105.336,2131.61,2117.614,2134.833,2130.283z"/>
					</g>
				</g>
			</g>
			
				<linearGradient id="SVGID_00000052097822930909048890000009933289769430282907_" gradientUnits="userSpaceOnUse" x1="2634.4783" y1="867.9924" x2="2313.6704" y2="1250.8927">
				<stop  offset="0" style="stop-color:#53D8FF"/>
				<stop  offset="1" style="stop-color:#3840F7"/>
			</linearGradient>
			<path style="fill:url(#SVGID_00000052097822930909048890000009933289769430282907_);" d="M2491.578,1035.216
				c-40.295-28.56-75.552-28.31-100.432-21.205c-22.696,6.481-37.56,28.208-35.612,51.732l9.679,116.905l127.25,12.417
				C2492.462,1195.065,2570.603,1091.226,2491.578,1035.216z M2434.749,1128.964c-17.537-0.154-31.629-14.494-31.476-32.032
				c0.154-17.538,14.495-31.63,32.032-31.476c17.538,0.154,31.63,14.495,31.476,32.033
				C2466.628,1115.026,2452.287,1129.117,2434.749,1128.964z"/>
			<path style="fill:#FFFFFF;" d="M2378.364,1133.622c-1.571-0.014-2.9-1.223-3.032-2.821l-1.542-18.618
				c-0.141-1.691,1.117-3.175,2.808-3.316c1.725-0.147,3.177,1.118,3.316,2.811l1.542,18.618c0.141,1.691-1.117,3.174-2.808,3.316
				C2378.552,1133.62,2378.457,1133.623,2378.364,1133.622z M2375.343,1097.137c-1.571-0.014-2.9-1.223-3.032-2.821l-1.171-14.134
				c-1.856-22.408,12.416-43.133,33.933-49.28c15.239-4.353,30.905-4.858,46.56-1.504c1.659,0.354,2.717,1.99,2.361,3.649
				c-0.355,1.657-1.976,2.705-3.648,2.36c-14.665-3.136-29.326-2.667-43.586,1.404c-18.704,5.343-31.109,23.37-29.496,42.866
				l1.171,14.134c0.141,1.691-1.117,3.175-2.808,3.316C2375.531,1097.135,2375.436,1097.138,2375.343,1097.137z"/>
			
				<linearGradient id="SVGID_00000060021643149419939830000007860389722372286371_" gradientUnits="userSpaceOnUse" x1="2534.2791" y1="1015.1902" x2="2375.5986" y2="1342.899">
				<stop  offset="0" style="stop-color:#53D8FF"/>
				<stop  offset="1" style="stop-color:#3840F7"/>
			</linearGradient>
			<path style="fill:url(#SVGID_00000060021643149419939830000007860389722372286371_);" d="M2190.743,1256.615l0.514-58.729
				c0.178-20.273,17.123-36.363,37.378-35.492l404.79,17.42c17.964,0.773,32.393,15.084,33.312,33.042l2.889,56.46
				L2190.743,1256.615z"/>
			<path style="fill:#FFFFFF;" d="M2342.359,1185.521l-17.413-0.153c-1.697-0.015-3.061-1.401-3.046-3.1
				c0.015-1.699,1.403-3.061,3.1-3.046l17.413,0.152c1.697,0.015,3.061,1.401,3.046,3.1
				C2345.444,1184.173,2344.056,1185.536,2342.359,1185.521z"/>
			<path style="fill:#FFFFFF;" d="M2212.821,1238.365c-1.697-0.015-3.061-1.401-3.046-3.1l0.208-23.758
				c0.161-18.357,15.226-33.159,33.583-32.998l64.02,0.561c1.697,0.015,3.061,1.401,3.046,3.1c-0.015,1.698-1.403,3.061-3.1,3.046
				l-64.019-0.561c-14.967-0.131-27.252,11.94-27.383,26.906l-0.208,23.758C2215.906,1237.018,2214.518,1238.38,2212.821,1238.365z"
				/>
			
				<linearGradient id="SVGID_00000102516967743991879010000000536803632437934467_" gradientUnits="userSpaceOnUse" x1="2571.7627" y1="928.1793" x2="2215.2761" y2="1582.761" gradientTransform="matrix(1 0.0088 -0.0088 1 45.5298 2.4692)">
				<stop  offset="0" style="stop-color:#53D8FF"/>
				<stop  offset="1" style="stop-color:#3840F7"/>
			</linearGradient>
			<path style="fill:url(#SVGID_00000102516967743991879010000000536803632437934467_);" d="M2025.629,1270
				c1.155-20.328,18.068-36.168,38.429-35.99l708.065,6.183c25.46,0.222,47.066,18.735,51.189,43.86l0.569,3.467
				c4.516,27.52-16.86,52.468-44.747,52.223l-726.433-6.363c-16.689-0.146-29.867-14.217-28.919-30.88L2025.629,1270z"/>
			
				<linearGradient id="SVGID_00000093163331672020069690000003072425918667860364_" gradientUnits="userSpaceOnUse" x1="2340.2209" y1="1125.4518" x2="1854.6797" y2="1954.1565">
				<stop  offset="0" style="stop-color:#A737D5"/>
				<stop  offset="1" style="stop-color:#EF497A"/>
			</linearGradient>
			<path style="fill:url(#SVGID_00000093163331672020069690000003072425918667860364_);" d="M1972.134,1671.442L1972.134,1671.442
				c7.059-4.142,16.144-1.671,20.131,5.477l18.755,33.62c1.877,3.366,6.788,3.153,8.367-0.363l46.518-103.562
				c2.32-5.166,10.014-3.42,9.929,2.243c-0.475,31.678-8.88,91.892-59.495,142.295c0,0-27.893-10.842-50.356-60.168
				C1962.739,1683.858,1965.382,1675.404,1972.134,1671.442z"/>
		</g>
		<g>
			
				<linearGradient id="SVGID_00000013169567370400395040000012735885940465267898_" gradientUnits="userSpaceOnUse" x1="-3328.24" y1="3019.5391" x2="-3808.9856" y2="3542.4558" gradientTransform="matrix(-1 0 0 1 -839.5059 0)">
				<stop  offset="0" style="stop-color:#CB236D"/>
				<stop  offset="1" style="stop-color:#4C246D"/>
			</linearGradient>
			<path style="fill:url(#SVGID_00000013169567370400395040000012735885940465267898_);" d="M2640.698,3058.493
				c0,0,4.978,28.185,7.419,56.085c0.954,10.905-7.452,20.372-18.389,20.828c-37.155,1.547-116.632,4.557-145.151,3.284
				c-4.287-0.191-7.09-4.58-5.503-8.568l0,0c1.33-3.341,3.894-6.042,7.161-7.544l131.281-60.336L2640.698,3058.493z"/>
			
				<linearGradient id="SVGID_00000176032734054873932860000009563225753855782804_" gradientUnits="userSpaceOnUse" x1="-3484.2827" y1="3058.377" x2="-3441.5808" y2="3058.377" gradientTransform="matrix(-1 0 0 1 -839.5059 0)">
				<stop  offset="0" style="stop-color:#F9B776"/>
				<stop  offset="1" style="stop-color:#F47960"/>
			</linearGradient>
			<path style="fill:url(#SVGID_00000176032734054873932860000009563225753855782804_);" d="M2644.777,3041.932l-4,33.714
				c0,0-22.997,10.705-38.702-1.349l9.524-37.57L2644.777,3041.932z"/>
			
				<linearGradient id="SVGID_00000102527535964203689740000003583909841285509531_" gradientUnits="userSpaceOnUse" x1="-3585.5398" y1="2731.8618" x2="-3444.345" y2="2731.8618" gradientTransform="matrix(-1 0 0 1 -839.5059 0)">
				<stop  offset="0" style="stop-color:#2B3582"/>
				<stop  offset="1" style="stop-color:#150E42"/>
			</linearGradient>
			<path style="fill:url(#SVGID_00000102527535964203689740000003583909841285509531_);" d="M2641.771,2408.109
				c1.728,8.804,9.274,439.344-36.747,632.283c-0.751,3.148,0.845,6.393,3.841,7.617c7.059,2.884,20.897,7.06,37.481,7.617
				c5.135,0.173,9.74-3.166,11.189-8.095c13.155-44.765,76.192-269.05,84.415-483.303c9.188-239.406,0-8.152,0-8.152l-5.389-147.986
				L2641.771,2408.109z"/>
			
				<linearGradient id="SVGID_00000116231032170736077060000000704446358708713880_" gradientUnits="userSpaceOnUse" x1="-3436.0872" y1="2920.3889" x2="-3916.8335" y2="3443.3064" gradientTransform="matrix(-1 0 0 1 -839.5059 0)">
				<stop  offset="0" style="stop-color:#CB236D"/>
				<stop  offset="1" style="stop-color:#4C246D"/>
			</linearGradient>
			<path style="fill:url(#SVGID_00000116231032170736077060000000704446358708713880_);" d="M2791.715,3073.198
				c0,0,7.925,14.229,15.598,52.039c1.385,6.828-3.385,13.364-10.319,14.045c-12.269,1.206-31.156,2.757-46.285,2.653
				c-6.974-0.048-12.417-6.121-11.577-13.044c1.676-13.801,6.896-36.444,23.025-54.092L2791.715,3073.198z"/>
			
				<linearGradient id="SVGID_00000040535423831111185730000006716305894511112345_" gradientUnits="userSpaceOnUse" x1="-3638.1812" y1="3056.187" x2="-3601.3118" y2="3056.187" gradientTransform="matrix(-1 0 0 1 -839.5059 0)">
				<stop  offset="0" style="stop-color:#F9B776"/>
				<stop  offset="1" style="stop-color:#F47960"/>
			</linearGradient>
			<path style="fill:url(#SVGID_00000040535423831111185730000006716305894511112345_);" d="M2798.675,3029.834l-9.347,50.984
				c0,0-9.241,6.874-27.523,1.891l4.461-54.855L2798.675,3029.834z"/>
			
				<linearGradient id="SVGID_00000154406014598274280010000010101993659860801715_" gradientUnits="userSpaceOnUse" x1="-3677.9207" y1="2727.2419" x2="-3477.4697" y2="2727.2419" gradientTransform="matrix(-1 0 0 1 -839.5059 0)">
				<stop  offset="0" style="stop-color:#2B3582"/>
				<stop  offset="1" style="stop-color:#150E42"/>
			</linearGradient>
			<path style="fill:url(#SVGID_00000154406014598274280010000010101993659860801715_);" d="M2823.925,2421.321
				c37.639,227.156-8.165,561.436-23.613,626.863c-0.946,4.005-4.178,7.074-8.239,7.747c-6.895,1.143-18.248,2.076-29.44-1.175
				c-3.856-1.12-6.565-4.598-6.723-8.611c-2.073-52.896,1.658-377.622-33.414-505.955c-1.777-6.504-5.749-12.176-11.244-16.082
				l-68.071-48.393l-5.219-78.223L2823.925,2421.321z"/>
			<g>
				
					<linearGradient id="SVGID_00000083788076977280735100000002482949807260982457_" gradientUnits="userSpaceOnUse" x1="-3734.9214" y1="2342.8186" x2="-3062.9995" y2="1859.2589" gradientTransform="matrix(-1 0 0 1 -839.5059 0)">
					<stop  offset="0" style="stop-color:#FDF53F"/>
					<stop  offset="1" style="stop-color:#D93C65"/>
				</linearGradient>
				<path style="fill:url(#SVGID_00000083788076977280735100000002482949807260982457_);" d="M2584.085,1990.903
					c112.798-1.864,237.258,29.618,237.258,29.618c33.623,196.188,5.88,422.477,5.88,422.477
					c-87.326,22.901-185.834-14.001-185.834-14.001c-14.514-82.001-82.233-312.782-82.233-312.782
					c-55.113-6.84-100.514-22.741-137.902-43.763c28.519-33.058,41.963-75.122,47.803-99.987
					C2508.939,1984.858,2549.295,1991.478,2584.085,1990.903z"/>
				
					<linearGradient id="SVGID_00000125575573507014012080000001954561739159270542_" gradientUnits="userSpaceOnUse" x1="-3308.5637" y1="1944.3296" x2="-3090.4058" y2="1944.3296" gradientTransform="matrix(-1 0 0 1 -839.5059 0)">
					<stop  offset="0" style="stop-color:#F9B776"/>
					<stop  offset="1" style="stop-color:#F47960"/>
				</linearGradient>
				<path style="fill:url(#SVGID_00000125575573507014012080000001954561739159270542_);" d="M2250.9,1824.757
					c11.081-13.384,25.104-7.052,25.104-7.052c16.599,70.117,103.635,126.969,193.053,154.758
					c-5.84,24.865-19.284,66.93-47.803,99.987C2272.858,1989.013,2250.9,1824.757,2250.9,1824.757z"/>
			</g>
			<g>
				
					<linearGradient id="SVGID_00000143586819331598177780000010382287526669062281_" gradientUnits="userSpaceOnUse" x1="13586.7822" y1="1907.7612" x2="13733.1719" y2="2240.8296" gradientTransform="matrix(1 0 0 1 -11287.2842 0)">
					<stop  offset="0" style="stop-color:#F9B776"/>
					<stop  offset="1" style="stop-color:#F47960"/>
				</linearGradient>
				<path style="fill:url(#SVGID_00000143586819331598177780000010382287526669062281_);" d="M2253.589,1828.161
					c-1.159,3.686,12.267,9.298,20.172-5.777c0.276-7.225,4.67-38.177,0.353-44.063c-22.993-31.348-67.572-70.644-67.572-70.644
					c-7.534,7.434-1.327,14.737-1.327,14.737l21.625,22.528c-4.523,8.174-10.041,15.074-12.626,24.961
					c-1.958,7.488-0.76,15.489,3.021,22.304c3.796,6.839,8.975,15.729,13.871,22.686
					C2240.375,1828.062,2253.589,1828.161,2253.589,1828.161z"/>
				
					<linearGradient id="SVGID_00000150066110823506337430000007280819628853309874_" gradientUnits="userSpaceOnUse" x1="-3091.4529" y1="1796.8375" x2="-3030.3706" y2="1702.9236" gradientTransform="matrix(-1 0 0 1 -839.5059 0)">
					<stop  offset="0" style="stop-color:#F9B776"/>
					<stop  offset="1" style="stop-color:#F47960"/>
				</linearGradient>
				<path style="fill:url(#SVGID_00000150066110823506337430000007280819628853309874_);" d="M2236.3,1759.56l19.707,16.706
					l6.187,16.633l-17.571,19.492c0,0-5.908-33.003-10.299-40.147C2229.934,1765.103,2232.211,1761.649,2236.3,1759.56z"/>
			</g>
			
				<linearGradient id="SVGID_00000165936292222502796420000012097089361514975167_" gradientUnits="userSpaceOnUse" x1="-3823.4622" y1="2219.7881" x2="-3151.5422" y2="1736.2299" gradientTransform="matrix(-1 0 0 1 -839.5059 0)">
				<stop  offset="0" style="stop-color:#FDF53F"/>
				<stop  offset="1" style="stop-color:#D93C65"/>
			</linearGradient>
			<path style="fill:url(#SVGID_00000165936292222502796420000012097089361514975167_);" d="M2778.079,2129.742l43.265-109.222
				c0,0,105.36,71.587,122.686,162.352c-19.907,1.466-56.133,6.644-91.591,24.548
				C2844.647,2164.563,2778.079,2129.742,2778.079,2129.742z"/>
			
				<linearGradient id="SVGID_00000170964948421829713020000016607877070373300668_" gradientUnits="userSpaceOnUse" x1="-3785.938" y1="2253.3445" x2="-3509.8574" y2="2253.3445" gradientTransform="matrix(-1 0 0 1 -839.5059 0)">
				<stop  offset="0" style="stop-color:#F9B776"/>
				<stop  offset="1" style="stop-color:#F47960"/>
			</linearGradient>
			<path style="fill:url(#SVGID_00000170964948421829713020000016607877070373300668_);" d="M2686.006,2232.516
				c0,0,118.292,66.853,158.206,9.769c8.287-11.853,10.268-23.633,8.227-34.864c35.458-17.904,71.683-23.082,91.591-24.548
				c5.225,27.362,2.463,56.465-13.616,85.878c-69.915,127.895-260.062-7.068-260.062-7.068L2686.006,2232.516z"/>
			<g>
				
					<linearGradient id="SVGID_00000075875538168957498880000008140939601628538770_" gradientUnits="userSpaceOnUse" x1="2457.624" y1="2300.9602" x2="2926.762" y2="1800.7759">
					<stop  offset="0" style="stop-color:#CB236D"/>
					<stop  offset="1" style="stop-color:#4C246D"/>
				</linearGradient>
				<path style="fill:url(#SVGID_00000075875538168957498880000008140939601628538770_);" d="M2700.219,2317.093l-64.559-225.457
					c-0.733-2.559-2.916-4.426-5.561-4.734c-11.697-1.365-45.591-5.196-84.724-8.506c-47.138-3.987-101.878-7.218-134.59-4.469
					c-4.651,0.391-7.461,5.309-5.393,9.493c18.602,37.634,95.117,190.718,133.434,240.866c1.269,1.661,3.232,2.632,5.323,2.613
					l149.789-1.394C2698.298,2325.464,2701.419,2321.283,2700.219,2317.093z"/>
				
					<linearGradient id="SVGID_00000138568945204485803750000003733238626559660168_" gradientUnits="userSpaceOnUse" x1="2487.9558" y1="2064.3921" x2="2544.3562" y2="2064.3921">
					<stop  offset="0" style="stop-color:#A737D5"/>
					<stop  offset="1" style="stop-color:#EF497A"/>
				</linearGradient>
				<path style="fill:url(#SVGID_00000138568945204485803750000003733238626559660168_);" d="M2538.678,2058.849l-46.807-7.799
					c-2.493-0.416-4.534,1.967-3.742,4.366l4.634,14.041c0.403,1.222,1.469,2.106,2.745,2.277l45.042,6.017
					c2.33,0.311,4.251-1.806,3.716-4.095l-2.868-12.258C2541.088,2060.077,2540.016,2059.072,2538.678,2058.849z"/>
				
					<linearGradient id="SVGID_00000026143184990821621820000013786518319057876868_" gradientUnits="userSpaceOnUse" x1="2582.0269" y1="1992.459" x2="2478.5403" y2="2145.9639">
					<stop  offset="0" style="stop-color:#A737D5"/>
					<stop  offset="1" style="stop-color:#EF497A"/>
				</linearGradient>
				<path style="fill:url(#SVGID_00000026143184990821621820000013786518319057876868_);" d="M2573.726,2098.475l-3.856-20.085
					c-0.387-2.015-2.05-3.536-4.091-3.744l-94.539-9.593c-3.182-0.323-5.73,2.593-4.983,5.703l6.011,25.028
					c0.481,2.003,2.224,3.449,4.281,3.553l92.384,4.651C2571.94,2104.139,2574.294,2101.432,2573.726,2098.475z"/>
				
					<linearGradient id="SVGID_00000097461294202987612580000017683626542716523453_" gradientUnits="userSpaceOnUse" x1="-3530.3552" y1="2224.3975" x2="-3444.345" y2="2224.3975" gradientTransform="matrix(-1 0 0 1 -839.5059 0)">
					<stop  offset="0" style="stop-color:#F9B776"/>
					<stop  offset="1" style="stop-color:#F47960"/>
				</linearGradient>
				<path style="fill:url(#SVGID_00000097461294202987612580000017683626542716523453_);" d="M2684.622,2262.622
					c0,0,8.993-36.98,5.366-50.1c-3.628-13.12-10.656-29.988-34.084-26.24c-23.428,3.749-51.064,13.618-51.064,13.618
					s1.396,17.089,19.201,11.576L2613,2220.02c0,0,1.578,13.683,16.618,6.373l-10.269,11.331c0,0,6.459,11.238,17.524,4.03
					C2647.937,2234.545,2653.241,2267.075,2684.622,2262.622z"/>
			</g>
			
				<linearGradient id="SVGID_00000088096958674177339750000003508358332846506113_" gradientUnits="userSpaceOnUse" x1="-3573.9465" y1="1958.1973" x2="-3464.7935" y2="1958.1973" gradientTransform="matrix(-1 0 0 1 -839.5059 0)">
				<stop  offset="0" style="stop-color:#F9B776"/>
				<stop  offset="1" style="stop-color:#F47960"/>
			</linearGradient>
			<path style="fill:url(#SVGID_00000088096958674177339750000003508358332846506113_);" d="M2698.341,1899.328l35.891,103.793
				c0.594,1.719-0.112,3.623-1.705,4.504c-9.784,5.409-45.031,21.045-87.508-5.886c-4.425-2.805-7.437-7.381-8.109-12.577
				l-11.622-89.833H2698.341z"/>
			<g>
				
					<linearGradient id="SVGID_00000005982856743524029850000018221004085627184297_" gradientUnits="userSpaceOnUse" x1="-2244.4485" y1="1902.6919" x2="-2381.9177" y2="2084.5522" gradientTransform="matrix(-0.7151 -0.6991 -0.6991 0.7151 2384.7625 -1119.8906)">
					<stop  offset="0" style="stop-color:#F9B776"/>
					<stop  offset="1" style="stop-color:#F47960"/>
				</linearGradient>
				<path style="fill:url(#SVGID_00000005982856743524029850000018221004085627184297_);" d="M2640.862,1790.39
					c-1.267,1.296-51.17,110.246-51.17,110.246l62.814,27.172l62.639-96.235C2715.146,1831.572,2662.074,1768.693,2640.862,1790.39z
					"/>
				
					<linearGradient id="SVGID_00000067202781823937366220000012129654720886837159_" gradientUnits="userSpaceOnUse" x1="-2349.4368" y1="1946.5613" x2="-2185.2292" y2="1946.5613" gradientTransform="matrix(-0.7151 -0.6991 -0.6991 0.7151 2384.7625 -1119.8906)">
					<stop  offset="0" style="stop-color:#2B3582"/>
					<stop  offset="1" style="stop-color:#150E42"/>
				</linearGradient>
				<path style="fill:url(#SVGID_00000067202781823937366220000012129654720886837159_);" d="M2687.952,1843.35l-29.007,53.242
					c-0.372,0.683-0.822,1.297-1.365,1.854c-3.322,3.407-15.612,14.293-25.983,1.039c-9.409-12.026-18.176-22.861-27.368-26.051
					c-4.127-1.432-8.658,0.499-10.477,4.471c-4.531,9.9-14.33,32.398-19.861,53.243c-1.122,4.23,1.221,8.593,5.336,10.082
					c12.4,4.486,38.818,13.217,61.716,15.261c3.103,0.277,6.099-1.129,7.828-3.72c8.432-12.631,34.203-50.924,43.035-60.484
					c8.29-8.973,24.605-6.06,31.368-4.348c2.217,0.561,4.546,0.192,6.483-1.023c6.848-4.297,20.433-15.893,6.95-34.558
					c-2.822-3.906-1.858-9.321,2.132-12.023c7.944-5.379,17.176-15.7,7.974-31.822c-9.353-16.387-25.152-16.559-35.158-14.63
					c-4.047,0.779-7.956-1.506-9.47-5.338c-0.863-2.182-2.683-4.02-6.31-4.288c-4.887-0.361-8.293-5.036-7.429-9.859
					c1.662-9.267,0.223-21.544-15.093-29.155c-27.177-13.505-49.462,11.264-54.546,31.604c-5.083,20.34,25.213,33.307,43.999,34.901
					c14.283,1.212,22.511,16.886,25.635,24.329C2689.332,1838.434,2689.176,1841.105,2687.952,1843.35z"/>
				
					<linearGradient id="SVGID_00000134956420089305810120000002512437387529624747_" gradientUnits="userSpaceOnUse" x1="-2445.7854" y1="2046.7115" x2="-2335.5254" y2="1933.5878" gradientTransform="matrix(-0.7151 -0.6991 -0.6991 0.7151 2384.7625 -1119.8906)">
					<stop  offset="0" style="stop-color:#F9B776"/>
					<stop  offset="1" style="stop-color:#F47960"/>
				</linearGradient>
				<path style="fill:url(#SVGID_00000134956420089305810120000002512437387529624747_);" d="M2681.052,1911.568
					c0,0,10.38-35.061,25.556-34.419c15.176,0.641,27.704,15.213,9.665,32.928
					C2693.833,1932.112,2681.052,1911.568,2681.052,1911.568z"/>
			</g>
		</g>
	</g>
</g>
</svg>
