<?xml version="1.0" standalone="no"?>
<!DOCTYPE svg PUBLIC "-//W3C//DTD SVG 20010904//EN"
 "http://www.w3.org/TR/2001/REC-SVG-20010904/DTD/svg10.dtd">
<svg version="1.0" xmlns="http://www.w3.org/2000/svg"
 width="329.000000pt" height="151.000000pt" viewBox="0 0 329.000000 151.000000"
 preserveAspectRatio="xMidYMid meet">

<g transform="translate(0.000000,151.000000) scale(0.100000,-0.100000)"
fill="#000000" stroke="none">
<path d="M590 1289 c-7 -13 -36 -53 -64 -89 -59 -74 -157 -221 -197 -295 -74
-136 -78 -148 -59 -160 12 -8 79 -18 269 -44 148 -20 155 -24 166 -94 8 -47
16 -40 -155 -156 -63 -43 -133 -93 -155 -110 -46 -38 -41 -42 -111 85 -51 94
-70 115 -80 90 -4 -9 0 -24 8 -34 8 -9 38 -59 67 -109 61 -107 76 -114 138
-60 21 17 40 35 41 40 2 4 8 7 13 7 8 0 97 57 109 70 3 3 30 22 60 42 30 20
68 48 84 61 l30 24 -17 59 c-9 32 -25 67 -36 77 -18 19 -101 34 -344 64 -26 3
-50 9 -52 14 -3 4 7 29 21 56 15 26 34 63 43 81 8 17 19 32 23 32 4 0 8 6 8
14 0 8 11 28 25 44 14 17 25 33 25 36 0 9 32 54 102 143 61 78 76 109 60 125
-7 7 -14 2 -22 -13z"/>
<path d="M1186 1268 c-3 -7 -17 -47 -31 -88 -27 -74 -34 -99 -73 -250 -11 -41
-27 -95 -35 -120 -8 -25 -20 -67 -26 -95 -7 -27 -17 -66 -22 -85 -6 -19 -11
-64 -12 -99 -3 -83 18 -94 27 -14 8 71 42 219 67 293 10 30 24 80 30 110 6 30
15 60 19 65 4 6 10 28 14 50 7 38 38 129 57 167 12 24 11 65 -1 73 -6 3 -12 0
-14 -7z"/>
<path d="M2147 1153 c-11 -10 -8 -89 8 -193 15 -110 73 -377 86 -402 5 -10 14
-39 19 -65 15 -66 60 -113 60 -63 0 32 -31 174 -40 185 -15 18 -51 193 -48
231 2 20 10 40 18 45 40 20 165 53 250 64 123 18 200 35 200 47 0 17 -29 20
-77 8 -26 -6 -91 -18 -143 -25 -52 -7 -123 -22 -157 -34 -34 -11 -69 -21 -77
-21 -8 0 -23 -11 -34 -24 l-19 -24 -10 96 c-6 54 -9 111 -6 128 5 29 -16 62
-30 47z"/>
<path d="M975 840 c-3 -6 1 -13 10 -16 19 -8 30 0 20 15 -8 14 -22 14 -30 1z"/>
<path d="M2552 753 c-10 -16 -24 -43 -30 -62 -7 -18 -20 -40 -29 -47 -15 -10
-16 -15 -5 -25 6 -7 12 -28 12 -46 0 -45 33 -87 94 -120 46 -25 60 -28 151
-28 76 1 107 5 130 18 17 9 36 17 43 17 21 0 152 91 152 105 0 26 -22 27 -48
3 -36 -33 -102 -74 -132 -82 -14 -4 -40 -15 -59 -23 -50 -23 -164 -13 -222 18
-54 29 -78 57 -79 88 0 20 4 22 23 17 88 -27 127 -15 161 48 23 43 16 74 -25
115 -25 25 -39 31 -74 31 -36 0 -47 -5 -63 -27z m123 -34 c14 -17 24 -34 23
-38 -2 -3 -10 -18 -17 -32 -21 -42 -50 -53 -100 -38 -40 12 -42 14 -35 43 19
94 79 124 129 65z"/>
<path d="M930 685 c-6 -8 -9 -19 -5 -24 3 -6 -4 -42 -15 -80 -23 -73 -23 -122
-2 -129 8 -2 12 8 12 30 1 18 9 58 20 88 30 84 24 155 -10 115z"/>
<path d="M1149 686 c-2 -2 -2 -41 1 -87 3 -55 9 -84 18 -87 10 -3 12 16 10 84
-3 76 -12 106 -29 90z"/>
<path d="M1447 635 c-53 -50 -67 -78 -67 -134 0 -31 6 -43 38 -68 71 -58 99
-67 212 -71 69 -2 123 2 157 11 45 12 55 12 64 1 16 -19 83 -18 100 2 17 21
37 54 45 76 5 13 12 5 31 -33 28 -55 74 -96 121 -105 28 -6 32 -3 38 22 11 43
10 108 -1 113 -5 3 -14 -19 -18 -47 -7 -40 -13 -52 -26 -52 -48 0 -121 123
-121 203 0 51 -13 67 -56 67 -25 0 -41 -10 -73 -45 -46 -50 -61 -81 -61 -125
0 -27 -5 -31 -56 -46 -80 -23 -224 -16 -279 14 -83 45 -97 69 -74 129 16 42
88 103 122 103 41 0 29 24 -14 28 -29 2 -42 -4 -82 -43z m540 -88 c-15 -108
-80 -187 -117 -142 -10 12 -10 15 1 15 21 1 52 48 44 68 -6 15 -10 13 -31 -11
-27 -31 -29 -30 -14 7 14 38 80 106 103 106 18 0 19 -5 14 -43z"/>
</g>
</svg>
